/* XPM */
static char *Screen_Shot_2023_02_02_at_11_13_35_AM1675333012[] = {
/* columns rows colors chars-per-pixel */
"200 85 82 1 ",
"  c #969BB1",
". c #979EB3",
"X c #969CB4",
"o c #979FB6",
"O c #989CB3",
"+ c #999DB3",
"@ c #9A9FB3",
"# c #989DB6",
"$ c #9A9FB6",
"% c #9A9FB7",
"& c #979FB8",
"* c #989EB8",
"= c #99A0B6",
"- c #9AA0B6",
"; c #9CA1B5",
": c #9CA1B6",
"> c #9AA1B8",
", c #9BA2B9",
"< c #9DA2B8",
"1 c #9EA3BB",
"2 c #9FA4BC",
"3 c #A0A4BA",
"4 c #A0A5BB",
"5 c #A1A5BD",
"6 c #A3A7BE",
"7 c #A2A8BE",
"8 c #A4A9BF",
"9 c #A6ABBE",
"0 c #A6ABBF",
"q c #A6AAC0",
"w c #A4AAC2",
"e c #A6ACC3",
"r c #A7ADC3",
"t c #A9AEC2",
"y c #A9AFC6",
"u c #ACAFC5",
"i c #ABB0C3",
"p c #ABB0C5",
"a c #ACB0C6",
"s c #ABB1C9",
"d c #ACB1C9",
"f c #AEB2C8",
"g c #AFB5C9",
"h c #AFB6CB",
"j c #B0B4CA",
"k c #B0B5CB",
"l c #B2B6CB",
"z c #B0B4CD",
"x c #B1B7CC",
"c c #B1B7CD",
"v c #B2B6CC",
"b c #B3B8CE",
"n c #B4B8CE",
"m c #B4B8CF",
"M c #B4BACF",
"N c #B6BBCE",
"B c #B7BBCF",
"V c #B4B9D0",
"C c #B7BCD1",
"Z c #B8BCD2",
"A c #B8BDD2",
"S c #B9BDD2",
"D c #BBBFD3",
"F c #B9BDD4",
"G c #B9BFD4",
"H c #BBBFD4",
"J c #BBC0D6",
"K c #BCC1D5",
"L c #BDC3D5",
"P c #BEC2D4",
"I c #BEC3D4",
"U c #BFC2D5",
"Y c #BDC0D6",
"T c #BDC3D6",
"R c #BDC2D7",
"E c #BFC2D7",
"W c #BFC4D6",
"Q c #BDC3D8",
"! c #BFC2D8",
"~ c #BFC4D9",
"^ c #C0C3D9",
"/ c #C0C4D8",
/* pixels */
"EEEEEEEE//D//PUUUD/^UUUU^^EK//D/D/DD/DD/DD/DD/DD/DD/DD/DD//D//D//D//D//D//D//D///D//D//D//D//D//D//D//D//D//D//D//D//D//D//D//D//D//D//D//D//D//D//D//D//D//D//D//D//D//D//D//D//D//D//D//D//D//D//D//D/",
"EEEEEEEE/KD//D/DUUUUU/^U^F^HD//D/////////////////////////DD//D/DD//D/DD//D/DD//DD//DD/D//DD/D//DD/D//DD/D//DD/D//DD/D//DD/D//DD//DD//D/DD//D/DD//D/DD//D/DD//D/DD//D/DD//D/DD//D/DD//D/DD//D/DD//D/DD//D",
"EEEKELEL/////D//D//YD//DUUHED//D/DD/D//D/DD//DD/D//D/DD///LEDD///DD/////DD///DD/D//D//D/D//DD//D//D/D//DD//D//D/D//DD//D//D/D//DD//D/D//D//DD//D/D//D//DD//D/D//D//DD//D/D//D//DD//D/D//D//DD//D/D//D//D",
"EEEELELED/DDD//D/D///D//^U^U//D/D//D/DD/D//DD//D/DD/D//DKLKK//D///D/D/DD//D///D//D//D//D/D///D//D//D/D///D//D//D/D///D//D//D/D////D/D//D//D///D/D//D//D///D/D//D//D///D/D//D//D///D/D//D//D///D/D//D//D/",
"LEEEEEEE/D//D//D/D//D//D/D//DD/D/D///D/D//D//D////D///D/ELKLKEKLD//D/DD//DD/D//DD/DD//D//D//D//DD//D/D//D/DD//D//D//D//DD//D/D////D/D//DD//D//D//D//DD/D//D/D//DD//D//D//D//DD/D//D/D//DD//D//D//D//DD/D",
"EKEKLKEKD//D//D/D^D//D/D//DD/////DD//K/K/D/DD/D/DD///DD/EKEEEEEE/D/D////D//D/DD/////DD//D/D//D/D//D/D//D////DD//D/D//D/D//D/D//DD//D/D//D/D//D/D//DD////D//D/D//D/D//D/D//DD////D//D/D//D/D//D/D//DD////",
"LKELEELED//DD/D/^/DD/D//D/D//DD/D//DD///DD////DD/D/DD//DELEELEEL/D//D//D/////////DD//D/D//DD/D//D/D//DD//DD//D/D//DD/D//D/D//DD//DD//D/D//D/DD//D/D//DD//DD//D/D//D/DD//D/D//DD//DD//D/D//D/DD//D/D//DD/",
"EELEKEKL/D//D//D/D//D//D/D//D//D//D//DDK//D//D////D//D//LEKEKLKED//D/DD//DD/DD/DD//D//D//D//D//DD//D//D/D//D//D//D//D//DD//D//D//D//D//DD//D//D//D//D//D/D//D//DD//D//D//D//D//D/D//D//DD//D//D//D//D//D",
"LELKD/DD//D//D//KLEKEEEL/D//D//DK/KPK/PDK////DK/D//DEEKELEEKLELE/D//D//DD//D//D/D//D//D//D//D//D//D//D//D//D//D/D//D/DD//DD/DD/DD/DD/DD//DD/D//D/D//D//D//D//D//D//D//D//D//D//DD/DD/DD//DD/D//D/D//D//D",
"KELE////D//D/DD/EELEEKLED/D//DD//K/KKK/KD/DDKK/K/DD/EKELKELEELKE//DD/D//D/D//DD//DD//D/D//DD/D//D//D/DD//DD/D//D/D//D//D////////////////D//D//D/D//D/DD//DD/D//D//D/DD//D/D//DD/////////D//D//D/D//D/DD/",
"/DK//DD/D//DD//DEEEEKEEL//DD////K/KE/KD//DD//KK/////ELEEKLELLELED/D//D/D//D/D//D////DD//D/D//D/DD//DD//D/////DD//D/D////D//D/DD//DD/D//D////D/D//DD/////D//DD//DD/D//D/D//DD/////DD/D//D////D/D//DD/////",
"D//DD//D//D///D/EKKLELLE/D//DD/D/K/DK/////K/K//KDD/DLEKEEELKELEL/D//D//DD//D/D//D/DD//D//D//D//D//D///D/DD/D/D//D//D/DD//DD/D//DD//D/DD//DD/D//D//D/D/DD/D///D//D//D//D//D//DD/DD//D/DD//DD/D//D//D/D/DD",
"//D//D//D//D//D/LKEEEEELK//E/D/KEEE/ELEEDK/P^/E//DH/E/EEELEEEEEE/D///D//D//D/D///D//D//D/D///D//D//D//D//DD/D//D//D/D/DD//D///D//D///D//DD/D/D//D//D/DD//D//D//D//D///D/D//D//D//D///D//DD/D/D//D//D/DD/",
"/D/DD/D/D/D//D/DELKLEEKEDKE//KK/EEK/LEL!//P/H/EK/////H!!/E/EELKED//DD//D//D/D//DD//D//D/D//DD//DD/D//D/D////D/D//DD/////DD///DD//DD///DD/////DD//D/D////D/D//D/DD//DD//D/D//D//D/DD///DD/////DD//D/D////",
"DD////DD//D/DD//KLEEEHEE//^B0099e0qq0qwqtq390t0w9q0t9qt0007xEEEE/DD/D//DD/D//DD/D//DD/D//DD/D//D//D/DD//D//D//D/D//D/DD//D/DD//DD//DD/D//DD/D//D/D//D//D//DD/D//D//D/DD//D/DD//DD//DD/D//DD/D//D/D//D//D",
"//D//D//D//D//D//EKLEEDEEE^lOO++#oo+##.#++###Xoo+O###+.o+++uEEKE//K//D//D//D//D//D//D//D//D//D//D//D//D//DD/D//D/D//D//D//D//D////D//D//D//D//D/D//D/DD//D//D//D//D//D//D//D//D///D//D//D//D//D/D//D/DD/",
"//D//D//D//D//K/DD/D!!!!!!~xo#=#o#=o#=o#=o#=o#=oo=oo==o==++a~!EEK///EEEKLELELEEELKK/DD/D/D//D//DD//D//D//DD/D//D/D//D//D//D//D////D//D//D//D//D/D//D/DD//D//D//DD//D//D//D//D//D//D//D//D//D//D/D//D//D/",
"DD////DD//D/DKKE////!F667262O#==o==oo=o==oo=o==oo=#=o#o=###>72663360n/K/ELELKLKLLELE/////DD//D/D//D/DD//D//D//D/D//D/DD//D/DD//DD//DD/D//DD/D//D/D//D//D//DD/D//D/D//DD/D//DD/D//D/DD//D/DD//D/D//D/DD//",
"/D/DD/D/D/D//DEK/^D/!H##==oX#+#=#==#o=o=#oo##==##=#=o#o#==ooo#oo%#%#l//KEEEEEELEEELK/DD/D//D/D//D/D//D/D////D/D//DD/////DD///DD//DD///DD/////DD//D/D////D/D//D/D//D/D//DD//D//D/DD///DD/////DD//D/D//D/D",
"//D//D//D//D//K/DD/D!D:#==oo==#=oo=o#=o#=o==oo=oo=oo==o==#===#==+#=#B/KKKKEEKEKEEKEED//D//D/D//DD//D//D//DD/D//D//D/D/DD//D///D//D///D//DD/D/D//D//D/DD//D//D//DD//D/D///D//D//D//D///D/D/DD//D/D//D//D/",
"D//DD//D//D/E/KE/EH621##=#===oo#oo#o==o==o==oo=oo=oo==o===#=#==#o=#+<333=3<<7KKE//D///D///D/D//D//D///D/DD/D/D//D//D/DD//DD/D//DD//D/DD//DD/D//D//D/D/DD/D///D//D//D/D//D/DD//D//DD/D//D/D//D//D//D///D/",
"/DD//DD/D//DKEEKE!E>#o#o=oo#========o#o=#o#o=#=##==##oo##===oooo#==o###=o===2LEEDD///DD/D//D/D//D//DD//D/////DD//D/D////D//D/DD//DD/D//D////D/D//DD/////D//DD//D//D/D//D////DD//D//D/DD/D//D//D/D//DD//D",
"////////D//D/KELEED>#oo=ooooooooo##oo#o#=o#o=#=oo==o=oo=oo=o======o##o#====#2BDE/D/DD//D/DD//D/DD//D/DD//DD/D//D/D//D//D////////////////D//D//D/D//D/DD//DD/D//DD/D//DD//DD//D/D////////D//DD/D/D//D/DD/",
"DD/DD/DD//D/EKLEEEC>#=#==#==#==#o==o==o==o==oo=oo=#o=#o=#==##oo#o=o=====o==#:<:7//D//D///D//D//D//D//D//D//D//D/D//D/DD//DD/DD/DD/DD/DD//DD/D//D/D//D//D//D//D//D//D//D/D//D//D//DD/DD/D/D//D//D//D//D//",
"/DD/DD/DKELELEELLLE:==o==o==o==o#==#==#==#==#o=##=o#=o#=oo#oo#oo#oo#oo#oo=ooo#+7/!!!ELELELEL/D//D//D//D/D//D//D//D//D//DD//D//D//D//D//DD//D//D//D//D//D/D//D//D//D//D//D//D//D/DD/DD/DD//D//D//D//D//D/",
"////////EEELELLLDCM#o#o=#o#oo##ooooooooo=oo#=o=oo=o==oo=================#==#oo+7nDHEKELELEEKD//DD/D//DD//DD//D/D//DD/D//D/D//DD//DD//D/D//D/DD//D/D//DD//DD//D/DD//D/DD//DD/D//D////////D//D/DD/D/D//DD/",
"D//DD/D/KEEELELK6o=oooo#=o#o========#oo=oooo=o=oo=o=#oo#o##oo==#ooooo##oo==o==#oooq~/EEKLEEED//D//D/D//D////DD//D/D//D/D//D/D//DD//D/D//D/D//D/D//DD////D//D/D//D//DD//D/////DD//DD//DD/D//DD//D//D/D//D",
"/DD//D//EEEEELLC<o=.=#o==o==o#oo#oo#==#==#==#o=##=o#=o==o==oo#oo#==#o==oo=#o#o==oor~LEKEKLEK/D//D//D/D//D/DD//D//D//D//DD//D/D////D/D//DD//D//D//D//DD/D//D/D//D//D///D/DD/D/D//D//DD//D//D///D/D//D/D//",
"KEEEBnnnMxDELEEE2==o==o=#o=#o=ooo#=oo=oo=#==o#=oo=oo=#===oo==#====#==o==#=o#==#=Xo0nnC/EK///D//DD//D/D///D//D//D/D///D//D//D/D////D/D//D//D///D/D//D//D///D/D//DD//D//D//DD/D//D//D//D//D//D//D/D//D/D//",
"EEE~a+=#o=xEEELC3##o#oo#=o=o#==#o==oo=#=ooooo==oo=#=oooo=##==oo#oooo#o#oo=o=oooo=#@#ouLEK/D//D/D//D/D//DD//D//D/D//DD//D//D/D//DD//D/D//D//DD//D/D//D//DD//D/D//D/D//D/D////D/D//D/DD/D/D/D//D/D//D/D//D",
"EEEEd=#===MLELEK<#===oo==o=oo==o#==##=#==##=#==##=#==##=oooooooo#oo==o#oo=o=#oo=o=o#+i/EK////D//D/D//DD/D//DD/D//DD/D//DD/D//DD//DD//D/DD//D/DD//D/DD//D/DD//D/D//D/DD//D//D//D/DD////DD//D/DD//D/D//DD/",
"LMhhw===#orggCEE6#oo=#o=#o=#o=#ooo=oo=oo=oo=oo=oo=oo=oo===#==#====#==o==#=o#==#=#=o#+t/EKPB/D//DD//D//D//D//D//D//D//D//D//D//D//D//D//D//D//D//D//D//D//D//D//DD//D//D//DD/D//D//D//D//D//D//D/D//D//D/",
"Lxo#ooo#=oooon^E<=o##=#==#===oo=o==o#==#==#==#==#==#==#==#==#==#o=oo==o=oo#oo==#=#=++i/P///D/E///D/KDD/D/D//D//D//D//D//D//D//D/D/DD/DD/DD/DD/DD/DD/DD/DD/DD/DD//DD/D//DD//D/DD/D//D//D//DD/D//D//D//D//",
"/x##oo#==#*o#nEK2oooo=oooooo=##=o##oooooooooooooooooooooooooooooo=#=o#o=#==o#======##9//DD//KH////K/////D//DD/D//DD/D//DD/D//DD/////////////////////////////////D//D//D//D//D//D//D/DD//D//D//D/D//D/DD/",
"Ex##=====o#o#MEEday>#oo==##=oooo========#oo==##=====#oo==##=====#=#=o#o#=====##=####@u/K///K/KdutD/K/DD/D//D//D/D//DD//D//D/D//D/DD/D//D/DD//DD/D//D/DD//DD/D//D////D/D//D/D////D/D//D/D////D/D/D//DD//D",
"/x###oo==o===MEE!!!>==#==oo===#=o#oo#oo#==#==oo=#oo#==#==oo=#oo#o=oo==o=oo#o==##==#+Ot/D/DKH//6O@B//D//D/D//D//D/D///D//D//D/D//D//D/DD/D//DD//D/DD/D//DD//D/DD//DD/D//DD//D/DD/D//D//D//DD/D//D//D///D/",
"/xoOo##=ooo=.MK/EEKo==#=oo#==#==o#=oo#oooo#oo==oo#=oo=oooo=oo#ooo=oo==o=#oo##===###. t//DD/DD/6O+B////D/D/DD//D//D//D//DD//D/D///D///D////D//D////D///D//D///D//DD/D/D////D/D/DD//D///D/DD/D/D//D//D//D/",
"/Chxqo###orghKEEEEKhhd<#=#====#=========#==oo##oo==oo=#==#=#====#==##oo#======#===6xfB/K/////DnzlDD//DD/////DD//D/D//D/D//D/D//D/DD///DD/D/DD/D/DD///DD//DD///DD/////DD//DD/////D//DD//D/////DD/D/D//D/D",
"EEELaXo*o#xE/KKLEKEE!H#*#=###=#>&&#=o==#========#==##=#==#=oo==#o==o=oo=oooo%###o.rE/DD//DD////////DD//D/DD//D/D//DD/D//D/D//DD/D//DD/D/DD////DD/D/DD//DD//DD/D//DD/D//DD//D/DD/D//D/DD//DD/D//D//D/DD//",
"EEEEso&#=#x/L/L/EEE!!C=####=##*#&o##o#oooo#oo#oooo=oo=oooo=oo#ooo=#o=#o=#==######XrE/D//D//DD/D/K/D//D//D//D//D//D//D//DD//D//D///D//D////D//D////D//D////D//D//D//D//D//D//D//D//D//D//D//D//D/D//D//D/",
"ELEEHnnxnMB/Ei77030KEEnnmCnnnnnlnq#=====#===o==o==o==o====o====##=o#=o#===o=ooo5nnn//DEK/D//D//D///K/D//D//D//D/D//D/DD//DD/DD/D/D//D//DD//D/DD/D//D//D//D//D//D//D//D////D//D//D//D//D/D//D//D/D//D/DD/",
"LEKL!!EELE/KE3..=+:LKE//!!!//////i######o=#oo##o#oo##o#oo#o==#==o=o==oo===#=*XoqE//K/EK//DD//D/DKD/D/DD//DD/D//D/D//D//D////////D//DD/D//D//D//D/DD/D//DD//D/DD//D/DD//DD//DD/D/D/D//DD//DD//D/D/D//D//D",
"ELLE!EKE/EK/E6.=##=CELEE!EH/^//D/ao#:##=o==o=====o===o#oo#o#=o#=o=o=#oo###:##X#7EED//K/KD//D/D//D//DD//D/////DD//D/D////D//D/DD/D//D//D//D/D/////////DD//DD/////DD///DD//DD///DD//D/D//D////DD///D/D////",
"LEELEEEEEE/KE6oo=#=ELKLKHE/H//D/!KCD0#=###==o#oo=#o==o====o==#=##=o#=o====##6DDCEE/KK/K///D/D//D//D///D/DD/D/D//D//D/DD//DD/D//D/D//D//DD//D/DD/DD/D/D////D/D/DD//D///D//D///D//D//D/D//D/DD//D/D//D/DD/",
"KEKEEEEEELELH2==&o%DKLEKEKL!//D/EEE~t+#+#oo&o#=#oo#####&o###o######o=#######3D////////K///D/D//DD//D//D//DD/D//D//D/D/DD//D///D/D/DD//D///D/D/DD/DD/D//DD//D/DD//DD/D//DD//D/DD/D//D/D///D//D//D//D/D/DD",
"EEELEEHELELEE6==>=3^EELE!E!LD//DEEKE0=:::<=>#<::>>=:::=>=:>:#>%<::=>==<:%%::0/DDKDKDKD/KD//D/D//D/D//D/D////D/D//DD/////DD///DD/////DD///DD/////////D/D//D/D////D//D/DD//DD/D//D//D/D//DD//D//D//DD/////",
"KELEd#:dEEELECDHCKFHEEEELELE/DD/KELLCLKCHDFFFHHHFFKHECFFFHDHHFDDECFFFHKDDFDCD///D/DKD/K//DD//D/D//D/DD//D//D//D/D//D/DD//D/DD//D/DD//D/DD//D/DD/D//D//D//D//D//D////////////////D/D//DD/D//DD/D/D//D/DD/",
"EEEEao.aELEEEE~EE!!EEEKLELEL/D//EEE^EE!E!!!!!!!!!!!!!!!!!!!!EEE/!!!!!!E!/^H/D/D/D/P///DK/D//D//DD//D//D//DD/D//D/D//D//D//D//D//D//D//D//D//D//D/DD/D//DD//D/DD//DD/DD/DD/DD/DD/D//D//D//D//D//D/D//D//D",
"LEKEh11x//DD/DD/D//D//D//D//D//DLEEKELKED/DD/DD/D//D//D//D//D//D!EKEEELLKL/D//D//D//D//D//D//D//D//D//D//DD/D//D/D//D//D//D//D///D//D//D//D//D///D//D//D//D//D//DD/DD/DD/DD/DD/D/D//D//D//D//D///D//D//D",
"ELLEEDH^D///////D/D//DD/D//DD/D/ELEELEEE////////D/D//DD/D//DD/D/EEEEKLKE/K/DD//DD//DD/D//DD/D//D//D/DD//D//D//D/D//D/DD//D/DD//D/DD//D/DD//D/DD///DD/D//DD////DD/////////////////DD//D/DD//D/DD/D/D//DD/",
"LEELEE^E/DD/D//D//D/D//DD//D//D/LELKEKKE/DD/D//D//D/D//DD//D//D/ELKLEELE/D//D//DD//D//D/D//DD//DD/D//D/D////D/D//DD/////DD///DD/D//D/D//D//DD//DD/D//D/D/D/DD/D//DD//DD/D//D/DD/D//D/D//D//DD//D//DD////",
"KEKEKEHE/D///DD/D//D/D///D//D//DELELELELD//D/DD/D//D/D///D//D//DLEE!KLEKD//D//D//D//D//D/D///D//D//D//D//DD/D//D//D/D/DD//D///D///D/D//D//D///D//D//D//D//D//D//D//DD//D/DD/D//D//D/D//D//D///D//D//DD/D",
"EEEKLKEED//D/DD/D//D/D//D/DD//D///D/ELEL/D///D//D//D/D//D/DD//D/ELKELEEE/D//DD/DD/DD//D//D//D//D//D///D/DD/D/D//D//D/DD//DD/D//D//D/D//DD//D//D//D///D//D//DD//D//D//D////D///D///D/D//DD//D//D/D//D//D/",
"KEEL^EKE/DD/D//D//D/D//D////DD//DD//KEEK/DD///DD//D/D//D////DD//LEEEKLEK//DD////////DD//D/D//D/DD//DD//D/////DD//D/D////D//D/DD/D//D/D//D/D//D/DD//DD//D/DD//DD//D/DD/D/DD///DD/D//D/D//D/D//D/D/D//D//D",
"ELLELEL!////////D/D//DD//DD//D/D/D/DKLELD//DD/D/D/D//DD//DD//D/DELEEEKELD/D//DD//DD//D/D//DD/D//D//D/DD//DD/D//D/D//D//D/////////DD//D/D//D/DD///DD/D//D////////DD////DD/D/DD//D/DD//D/D//D/DD///D/DD//D",
"EKELEL!LD/DD/DD/D//D//D/D//D//D///KLEEEK//D//D//D//D//D/D//D//D/LELKEELE/D//D//DD//D//D//D//D//D//D//D//D//D//D/D//D/DD//DD/DD/D/D//D//DD//D//D///D//D//DD/DD/DD//D//D////D//D///D//D//DD//D//D/D//D//D/",
"EELE/D//DD/DD/DD//D//D//D//D//D/D//D//D//D//D//D//D//D//D//D//D/D//D//D//D//D//DD//D//D//D//D//DD//D//D/D//D//D//D//D//DD//D//D/D/DD/DD//DD/D//DD//D//D/D/DD/DD//DD/D//DD//D//D/D/DD/DD//DD/D//D//D//D//",
"EKKLD//D////////D//D/DD//DD/D//D/DD/D//DD//D/DD/D//D/DD//DD/D//D//D/DD//D/D//DD//DD//D/D//DD/D//D/D//DD//DD//D/D//DD/D//D/D//DD/////////D//D//D//D/DD//D////////D//D//D//D/DD//D////////D//D//D//DD/D//D",
"ELEED//D/DD//DD/D//DD//D/////DD//////DD//DD/////D//DD//D/////DD/D/D//D/D//DD////////DD//D/D//D/D//D/D//D////DD//D/D//D/D//D/D//D/DD/D//D////D/D//D//D//D/DD/D//D////D/D//D//D//D/DD/D//D////D/D/D//DD//D",
"LEKE/D//D//DD//D//D///D/DD/D/D//DD/D/D////D/D/DD//D///D/DD/D/D//D//D//D//D//DD/DD/DD//D//D//D//DD//D/D//D/DD//D//D//D//DD//D/D//D//D/DD//DD/D//DD//D//D/D//D/DD//DD/D//DD//D//D/D//D/DD//DD/D//D/D///D//",
"KLE/KE/D//D//D//D//D//D//DD/D//D/DD/D//DD//D/DD/D//D//D//DD/D//D//D///D/D//D//D//D//D//D/D///D//D//D/D///D//D//D/D///D//D//D/D///D///D//DD/D/D///D//DD/D/D///D//DD/D/D///D//DD/D/D///D//DD/D/D///D//D//D",
"LEKEEK/D/D/DD/D/D/D//D/D////D/D/////D/D//D/D////D/D//D/D////D/D/D//DD//D/D//D//DD//D//D/D//DD//D//D/D//DD//D//D/D//DD//D//D/D//D/DD///DD/////DD///DD/////DD///DD/////DD///DD/////DD///DD/////DD/D/D//D/D",
"KLKK/K//DD////DD//D/DD//D//D//D/D//D//D//D//D//D//D/DD//D//D//D/D//D/DD//D/DD//DD//DD/D//DD/D//DD/D//DD/D//DD/D//DD/D//DD/D//DD/D//DD/D//DD/D//DD/D//DD/D//DD/D//DD/D//DD/D//DD/D//DD/D//DD/D//D//DD/D//",
"EEE/KK/D//D//D//D//D//D//DD/D//D/DD/D//DD//D/DD/D//D//D//DD/D//D//D//D//D//D//D//D//D//D//D//D//D//D//D//D//D//D//D//D//D//D//D///D//D//D//D//D//D//D//D//D//D//D//D//D//D//D//D//D//D//D//D//D//D//D//D",
"D//D/DD//D//D//D/DD/D//DD//D/DD///D//D//D//D//D//D//D//D//D//D//DD/DD/DD/DD/DD/DD/DD/DD/DD/DD/DD/DD/DD/DD/DD/DD/DD/DD/DD/DD/DD/DD//D//D//D//D//D//D//D//D//D//D//D//D//D//D//D////D//D//D//D//D/KLEKEEEL",
"/D//D//D//DD/D//D//D//D//D//D//DDD////DD//D/DD////DD/D//DD////DD/////////////////////////////////////////////////////////////////DD//D/DD//D/DD//D/DD//D/DD//D/DD//D/DD//D/DD//DD//DD/D//DD/D//DEELEEKLE",
"/D/D////D/D//D/D////D/D//D/D/////D/DD/D/D/D//D/DD/D//D/D/D/DD/D//DD//DD/D//D/DD//DD/D//D/DD//DD/D//D/DD//DD/D//D/DD//DD/D//D/DD/////DD///DD/////DD///DD/////DD///DD/////DD///DD//DD///DD/////DD/EEEEEEEL",
"D//D/DD//D//D//D/DD/D//DD//D/DD///D//D//D//D//D//D//D//D//D//D//D//DD//D/DD/D//DD//D/DD/D//DD//D/DD/D//DD//D/DD/D//DD//D/DD/D//DD/DD//D///D/D/DD//D///D/D/DD//D///D/D/DD//D///D//D///D//DD/D/D//EKKLELLE",
"//D/D/DD/D///D//DD/D/D////D/D/DDD//DD//D//D///D//D///D//D//DD//D//D//D////D///D//D///D////D//D////D///D//D///D////D//D////D///D//D//D//DD//D/DD//DD/D//D/D//D//DD//D/DD//DD/D//DD//D/DD//DD/D//DLKEEELEL",
"/DD/////D//DD//D/////DD//DD//////DD//DD/D//DD//DD//DD//D/DD//DD//D/DD/D/DD///DD//DD///DD/D/DD/D/DD///DD//DD///DD/D/DD/D/DD///DD/D//D//D//D/D////D//D/DD/D//D//D//D/D////D//D/DD//DD/D//D////D/D/ELKLK!LE",
"D//D/DD//DD/D//D/DD/D//DD//D/DKE////////D//D/DD//DD/D//D////////DD////DD/D/DD//DD//DD/D/DD////DD/D/DD//DD//DD/D/DD////DD/D/DD//DD//DD/D//D//D//D////////D//DD/D//D//D//D////////////////D//D//D/KLEEL!LK",
"/D//D//D//D//D//D//D//D//D//K/KKDD/DD/DD//D//D////D//D//DD/DD/DK//D//D////D//D////D//D////D//D////D//D////D//D////D//D////D//D///D//D//DD//D/DD//DD/DD/D/D//D//DD//D/DD//DD/DD/DD/DD/DD//DD/D//DLEKLK!!E",
"/D//D//D/D//D//D//D//D//LKLKEEE//DD/DD/D/D//D//DD//D//D/LELELKKK/DD/D//DD//D//D//D//D//DKLKLEKLED//D//D//D//D//D/DD/D//DD//D//D///D//D//KEKLKEEEDD/DD/DD//D//D///D//D//DD//D//D//D//D//DD//D//D/K//D//D/",
"D/D//DD//DD//D/D/D/DD//DELELKLKE////////D//DD/D//D/DD//DKLKE/E/ED//D//D//D/DD//DD//DD/D/EEEEELEK/DD/D//DD//D/DD/D//D//D//D/DD//DD//DD/D/EEEEEEEK////////D//D/DD///DD/D//D/D//DD//DD//D/D//D/DD//D/D//DD/",
"//DD////D//D/D//DD///DD/KEKLEEKKD//D/DD/D//D//D//D//D//DLEEEKE/K////D/D//D//D//DD//D//D/LKKEEKEE/////DD//DD/////////D/D//D//D//D/DD///DDLEELLKEL/DD//DD/D//DD//DD/D//D/D//D/D//DD//D/D//D/D//D/D//D/D//D",
"/D//DD/D//D/D//D//D///D/EEEE/KE//DD/D//D/D//D//DD//D//D/EKEKEKKE/DD/D//DD//D//D//D//D//DKLLELEEKDD/D/D////D/D/DD/DD/D//DD//D//D//D///D//KLKEEELED//DD//D//D///D//D//D//DD//D/D////D/D//DD//D//D/D//D/D//",
"D//D//D///D/D//D/DD/D//DEEELELEL//D///D/D/DD//D//D//DD/DEKELELELDD/D/D///D//DD/DD/DD//K/EEKEEKEL/DD/D//DD//D/DD/DD/D/D///D//DD/DD//D/DD/LKEEELEL//D//D//D//D//D//D///D//D//D/D////D/D//D//D///D/D//D/D//",
"/D//D//DD//D/D//D//D/DD/KLKELELEDD///DD/////DD////DD////EELELELE/////DD///DD////////DD/K/KK/EELE////D/D//D/D/////////DD///DD/////DD/D//DELKLL!LE/D/DD/D/D/D//D/DD//DD//D//D/D//DD//D/D//D//DD//D//D/D//D",
"/D/DD//D/DD//D/D////////LEEEELEK/D/DD//D/DD//D/DD/D//DD/LKEEEL!L/DD/D//DD/D//DD//DD//DEKKEEKLKLED//D//D//D//D//D/DD/D//DD/D//DD///////////EL!L!LDD////DD//D/DD///DD/D//DD/D//DD//DD//D/DD//D/DD/D/D//DD/",
"D//D//D//D//D//D/DD/DD/DEKEKLEE!//D//D//D//D//D//D//D//DEKEEEKL!D//D//D//D//D//DD//D//K/EK/EELEL/DD/D//DD//D/DD/D//D//D//D//D//DD/DD/DD/DD/KLK!K//D//D//D//D//D///D//D//D//D//D//D//D//D//D//D//D//D//D/",
"//D/KL!L!LLELELEKL!L!LLELELEL!!!D//DL!!!!KELELELL!!!!K!LELELKL!L//D//D//L!!!!KLELELK//D/H!!LELLELELEEK~KQKE~~KE!//K/EKL^!K!K~!!K!KL!EK!KL!EK!KLELEEELEEE/DH/H//DD//D//D/EEE^EELKEELELEEK/D//D//D//D/D/DD",
"/DD/!!!KL!EKELEL!!!KL!EKELELK!KL/DD/K!KLLEE^LELEKEKLLEL!LELE!!!K/D^DD//DK!KLLEELLLE/D//DEEKELEEKELELEEELLLLLLLLK/KKPLLLLLLLKLLLLLQ~KLLLQ~LLLLLQ!EKEKKKEED//D//H//D/HD//DK!KLEKELKEEKKELED//DD/D/D//D////",
"D//DKLKE!!EEEELKKLK!E!EEKELEL!LK////L!EKEL!LHEKEEE~HEL!LHEKEKLKEDD///HD/L!EKEL!ELLEKD//DK!K!E!LELEKELEELLQLLLLL~K/K/LLLL~LLQLL~KLLLL~LQKLKQLL~LKLKELEEEE////H/D^/D//H//DL^!KLELEELKEKLELD//D//D/D//D/DD/",
"/D//!!L!EKEEHEEE!!L!EKEEEEKEK!!!DD/DKEEEEK!KEEEEKEE!EK!K!EEE!!LE//D///H/KEE!EK!KLLLL//D/!!!KEKEEKEEEKEE~LKEKEQ~KKD/KELKLKEK~K~KL!L!LKLK~KEQLKEEEEELEKEEE/HH/H//DD//H//H/HEEEELELLEEEEELK/D//D//D//D/D//D",
"//EKEEKEQQQQEKQQQQQQQQQQKELQQQQQ//EEEEKQQQQQKELQQQQQQQQQKEQQQQQQQQ!!/EH!QQQQQQQ!E!E^D//DE!E!!!!E!EEK!LKLQLLQ~LELK//KL//KLLK~~LLL/ELKLLDE~LLL~KL~EEEE/H^^H//H/D//!!!EH^^/EH!!!!HEKEK/ELKEKK/KEK/ED//D/D//"
};
