/* XPM */
static char *green_hole_cutout1675330948[] = {
/* columns rows colors chars-per-pixel */
"80 80 214 2 ",
"   c None",
".  c #67C12D",
"X  c #76C42D",
"o  c #65C235",
"O  c #6AC435",
"+  c #66C43A",
"@  c #6CC53C",
"#  c #6FC93D",
"$  c #73C536",
"%  c #72C63B",
"&  c #74C93D",
"*  c #7ACA3D",
"=  c #6CC640",
"-  c #73C541",
";  c #76CB41",
":  c #7BCC42",
">  c #79C64B",
",  c #7ED046",
"<  c #7CCB54",
"1  c #7CC857",
"2  c #83CC3D",
"3  c #89CB39",
"4  c #8CD03A",
"5  c #92D23D",
"6  c #9DD53C",
"7  c #9BD131",
"8  c #A7DB3E",
"9  c #B1DD3A",
"0  c #BCE13E",
"q  c #CFE339",
"w  c #D0E63E",
"e  c #EBF13F",
"r  c #AEB75D",
"t  c #B2B35F",
"y  c #B8BC67",
"u  c #84CE43",
"i  c #8BCE42",
"p  c #90CD48",
"a  c #86D144",
"s  c #8CD143",
"d  c #8CD249",
"f  c #86D248",
"g  c #94D545",
"h  c #9AD647",
"j  c #95D64B",
"k  c #9BD54B",
"l  c #96D84C",
"z  c #9CDA4A",
"x  c #9BDA44",
"c  c #85C95B",
"v  c #9CDB54",
"b  c #98D856",
"n  c #A7DD46",
"m  c #A9DD47",
"M  c #A5DC4C",
"N  c #AADE4D",
"B  c #B4DD42",
"V  c #B1DE4C",
"C  c #A4DC51",
"Z  c #ABDE51",
"A  c #ACDF59",
"S  c #B0DF52",
"D  c #B2DF5A",
"F  c #AEE14D",
"G  c #B6E146",
"H  c #BAE144",
"J  c #B3E14C",
"K  c #BBE44B",
"L  c #ADE051",
"P  c #A5E25C",
"I  c #B3E253",
"U  c #BBE453",
"Y  c #B4E25C",
"T  c #BBE55C",
"R  c #85CE62",
"E  c #89CE64",
"W  c #8CCA6B",
"Q  c #92D26E",
"!  c #9BD37F",
"~  c #BFD363",
"^  c #B3DF65",
"/  c #A5D968",
"(  c #BCE563",
")  c #B9E36A",
"_  c #B6E365",
"`  c #C3E54A",
"'  c #C5E94B",
"]  c #CBE94D",
"[  c #C6E644",
"{  c #DAEC44",
"}  c #D7EC4A",
"|  c #DAF04E",
" . c #C4E651",
".. c #C2E75D",
"X. c #C2E95E",
"o. c #CDEC52",
"O. c #D3ED52",
"+. c #D9EF52",
"@. c #DEF351",
"#. c #E1EF49",
"$. c #E5F145",
"%. c #E6F34E",
"&. c #EBF54B",
"*. c #EBF548",
"=. c #F3F946",
"-. c #FEFC46",
";. c #F5F94C",
":. c #FEFC4A",
">. c #F1F546",
",. c #E2F452",
"<. c #EAF752",
"1. c #FAFC55",
"2. c #C9DD6F",
"3. c #CAD670",
"4. c #CBDD7A",
"5. c #D0DD74",
"6. c #C5EA63",
"7. c #CCEC65",
"8. c #CCED69",
"9. c #CFE164",
"0. c #D2ED66",
"q. c #D4EE6B",
"w. c #D5E76A",
"e. c #D4F16B",
"r. c #DCF36E",
"t. c #DBF365",
"y. c #CBE778",
"u. c #D2E472",
"i. c #D7ED76",
"p. c #D9ED75",
"a. c #D6EC7B",
"s. c #DAEE7B",
"d. c #D5E578",
"f. c #DCF371",
"g. c #DFF871",
"h. c #DDF37B",
"j. c #D4F279",
"k. c #E1F66F",
"l. c #E1F573",
"z. c #E3FA73",
"x. c #EBFF76",
"c. c #E1F67B",
"v. c #E4FC7B",
"b. c #EAFF7A",
"n. c #F7FB63",
"m. c #BACA80",
"M. c #A9D88F",
"N. c #B6DD9C",
"B. c #BDDFA6",
"V. c #BBDEA9",
"C. c #BCE0A5",
"Z. c #B6E1A7",
"A. c #CADA84",
"S. c #C7D994",
"D. c #CCDE9C",
"F. c #CADC98",
"G. c #C8EB83",
"H. c #C9EA8B",
"J. c #C3E685",
"K. c #D6EB83",
"L. c #DAED84",
"P. c #D5EA8D",
"I. c #DAEE8B",
"U. c #D3E589",
"Y. c #DDF282",
"T. c #DDF28B",
"R. c #CBEB95",
"E. c #CFE19E",
"W. c #D4EA94",
"Q. c #DAEC94",
"!. c #D2EF9C",
"~. c #D6E69F",
"^. c #D3F09E",
"/. c #E1F584",
"(. c #EAFF82",
"). c #E5F68C",
"_. c #E8FB89",
"`. c #E2F291",
"'. c #EAFA98",
"]. c #C8D8A3",
"[. c #C4E3AD",
"{. c #D4E8A4",
"}. c #DCF2AE",
"|. c #C7E7B4",
" X c #DDEDB4",
".X c #D1E7BA",
"XX c #DDF3B1",
"oX c #EAF6A6",
"OX c #ECF7AB",
"+X c #ECF8AC",
"@X c #E6F4A5",
"#X c #ECF6B1",
"$X c #EDF9B2",
"%X c #EBF5BA",
"&X c #EEF8BE",
"*X c #E0F3BB",
"=X c #F3FABE",
"-X c #D5ECCA",
";X c #EDF7C5",
":X c #E6F6C7",
">X c #F5FBC4",
",X c #F4FACC",
"<X c #F7FBC9",
"1X c #E0EDD9",
"2X c #F7FBD8",
"3X c #EBF6D7",
"4X c #E9F5E2",
"5X c #E6F3E1",
"6X c #FCFEE3",
"7X c #FBFDEC",
"8X c #F1F9EB",
"9X c #F4FBF1",
"0X c #FBFDF3",
"qX c #FEFEFD",
/* pixels */
"                                                                                                                                                                ",
"                                                                    5.3.3.3.p.h.s.u.u.d.L.U.                                                                    ",
"                                                                  2.x.z.l.x.x.z.z.z.z.z.x.j.                                                                    ",
"                                                      ~ c.h.h.f.j.f.r.f.r.r.f.r.f.f.f.r.r.r.f.p.e.i.f.f.                                                        ",
"                                                t y r 2.k.k.r.r.f.f.f.f.f.f.f.r.r.f.r.f.f.r.r.f.g.g.f.f.y.y.y.                                                  ",
"                                                w.b.z.g.f.g.f.f.f.f.f.f.f.f.f.f.g.r.f.f.f.f.l.f.f.h.c.h./.(.b.                                                  ",
"                                          p.l.u.r.f.f.r.f.f.f.f.f.f.p.l.l.l.l.l.l.l.h.f.r.t.f.r.f.6X0X0X0X2Xg.p.f.h.                                            ",
"                                        3.r.z.f.r.f.f.f.f.f.f.f.h.6.Z A A A A A A A A A P.#X#X#X#X0XqXqX2X+Xr.g.z.z.j.J.G.                                      ",
"                                    z.z.z.h.f.f.f.f.r.g.r.e.r.r.k.v o + O + + + + + + o V.qXqXqXqXqXqXqX).t.r.f.f.f.g.z.b.j.                                    ",
"                                A.h.f.f.r.r.r.r.r.f.g.g.8.a : : u ; @ @ @ @ @ @ @ @ @ + < E E E R c / `.l.r.k.f.f.f.r.r.l.j.j.                                  ",
"                              m.2.z.r.f.r.f.r.r.r.e.T ( P @ + @ + @ @ @ @ @ @ @ @ @ @ @ @ + O @ O o 2 T ( ..r.f.g.f.f.f.f.r.v.H.                                ",
"                              b.r.f.f.f.g.r.f.l.g._ . O O @ @ @ @ @ O @ O @ @ @ @ # @ @ @ @ @ @ @ @ @ @ + 3 j.f.f.f.f.f.f.f.r.b.d.                              ",
"                          4.j.l.r.f.f.f.f.f.7.I Y L h h l h h l g H { { K l # + @ @ + @ @ + @ @ @ @ @ @ @ - d d h e.l.p.f.r.f.g.p.d.                            ",
"                          u.z.r.f.f.f.r.r.e.X.M L M F L Z F F L N { :.-.| L a & * : : & : ; @ @ @ @ @ @ @ @ @ @ $ T q.l.r.f.f.f.g.b.A.                          ",
"                        b.f.r.f.r.f.l.k.r.L N N N N L M N N N N M { -.-.@.L L F L F F F N M = @ @ @ @ @ @ @ @ @ @ + C l.l.r.r.f.f.r.z.s.                        ",
"                      oXz.f.r.r.k.q.T T T N N N N N M F N N N N N K [ ] K F F z F M z L N M l g g g a @ @ @ @ @ @ @ u b j D l.f.f.f.g.p.Y.                      ",
"                    qX<Xr.f.h./.f.8.N N N N M N N N N N N N L N F M M M N M M N M N M N N N L L N V h & * * & @ @ @ @ + + p 8.f.l.f.r.k.x.W.                    ",
"                a.).qX>Xk.t.@XqXG.F N N N N N N N N N N N N M N M M F N N N F N F N N N N N N N N N F M M M M , o @ @ @ @ # $ 6.l.f.r.f.f.l.L.                  ",
"              I.p./.qX=Xf.+X%X{._ F N N N N N N N N N N N N N N N N N N N N N N N N N N N N N N N N M N N M N l s s : @ # @ O j D l.f.r.f.k.p.).                ",
"              (.k.Y.qX=Xs.0X:X8 m N J N m N N N N N N F N N N N N N N N N N N N N N N N N N N N N N N N N N N F F F j = @ @ @ + u l.r.r.f.f.k.b.Q.              ",
"              c.r.Y.qX=Xp.0X:Xm N B =.;.&.Z C N N N N N N N N N N F N N N N N N N N N N N N N N N N N N N N N N N N C z & @ @ @ i l.l.p.r.r.g.z.Q.              ",
"            I.h.`.%X0X2X+X*XR.m ` { :.-.:.O.V N N N N N N N N N N N M N N N N N N N N N N N N M N N N N N M N N N N Z C & # = @ * D q.f.f.f.r.l.I.              ",
"          a.x.t.>XqXqXqXqX) m m $.-.:.:.:.:.#.Z N N N N N N N N N N N N N N N N N N N N N N N N N F N N N N N N N N N C ; = @ @ @ o D f.f.f.f.f.l.g.            ",
"          a.z.t.;XqXqX:X) J N m $.-.-.-.:.:.+.M N N N N N N N N N N N N N N N N N N N N N N N N N N N N N N N N N N N M z d @ @ @ @ * g p.f.f.f.r.h.            ",
"          i.z.r.;XqXqX}.n M N M } >.-.-.:.&.] M N N N N N N N N N N N N N N N N N N N N N N N N N N N N N N N N N N N N L j + @ @ % @ * r.r.r.r.f.f.            ",
"        v.g.r.t.;XqXqXXXm N N N N B -.:.;.J N N N N N N N N N N N N N N N N N N N N N N N N N N N N N N N N N N N N N N L j @ @ @ @ @ : p.f.r.f.f.f.b.Q.        ",
"        v.r./.,X7X0XR.) M N N N N N [ [ ` V N M M N N N M N N N N N N N N F F N M F N N N N N N N N N N N N N N N N N N L l @ @ @ @ @ - p Y f.r.r.f.z.I.        ",
"      P.z.r.`.qXqX9XD M N N N N N N N M M N N N K J N N N N N N N N N N M z z z z M z M z M z M N N N K F N N N N N N N L h & @ @ @ @ @ o Z l.r.r.r.z.I.        ",
"    i.h.r.r.`.qXqX0X_ M N N N N N N N N N N N N =.%.M F N N N N N F N F g @ @ @ @ @ @ @ @ @ @ s Z M [ :.` N N N N N N N N M N * o @ @ @ @ A l.f.f.r.f.f.h.      ",
"    i.g.f.r.`.qX:XH.A N N N N N N N N N N N N N  .` N N N N N N N h u a : @ @ @ # @ @ @ @ O @ & s n V ] J N N N N N N N N N L : @ @ @ @ @ f C e.f.f.f.f.h.      ",
"    i.g.r.r.`.qXW.8 N Z N N N N N N N N N N N N L M M N N M M M M a + @ @ @ @ @ @ @ @ @ @ @ @ @ @ h m N N M N M N N N N N N Z ; @ @ @ @ @ + $ 0.r.f.f.f.f.      ",
"    s.z.r.r.T.qX!.n N N N N N N N N N N N N N N M F N N N J 4 @ % # @ @ @ @ @ # @ @ # @ @ # @ @ @ % 2 N F M N Z N N N N N N Z : @ @ @ @ O @ % 8.f.f.r.g.g.      ",
"    s.g.r.r.`.qX^.n M N N N N N N N N N N N N N N N M N M s * + @ @ @ @ @ @ @ @ @ @ @ = @ @ @ @ @ + : F N N N N N N N N N N Z : O @ @ + @ + - q.r.f.f.f.g.      ",
"    i.g.r.r.`.qX^.n N N N N N N N N N N N N N N N N N C j O @ @ @ @ @ @ % @ @ % @ @ % @ @ @ @ @ @ = u M N N N N N N N N N N Z : @ @ $ * & @ % 8.r.f.f.r.z.      ",
"F.h.f.f.f.r.`.qX!.n N N N N N N N N N N N N N N N N Z u % @ + @ @ @ @ @ * M n z M z l @ @ @ @ @ @ @ @ & x V N N N N N N N N Z ; @ O 0 *.&.F + & C g.f.f.r.h.Q.  ",
"F.g.r.f.r.r.`.qX^.n N N N N N N N N N N N N N N N C j : O @ = @ @ @ @ * g F F M N N M a - @ # @ @ @ @ @ h N N N N N N N N Z Z ; @ O w -.-.J + + k g.f.r.r.z.T.  ",
"S.g.f.f.r.r.`.qX!.n N N N N N F N N N N N N N N N j + @ @ @ % @ @ @ % n N N N N N N N L a @ + @ @ @ @ @ k N N N N N F N N N C : O O w -.:.V + + k f.r.r.r.l.I.  ",
"S.f.f.f.r.r.`.qX^.n N N N N N N N N N N N N N N S j @ @ @ @ = = @ u x M N N M N Z M N N z l # @ @ @ @ + g N N N N N M N N N L ; @ + 2 5 5 * % + b f.k.p.k.l.I.  ",
"S.f.r.f.f.r.T.3XG.M N N N N N N N N N N N N N N V j @ @ @ @ = @ @ i F N N N N N N F N M F M ; @ @ @ * 5 B U N N N N F M M L C : + @ @ @ + @ $ o k l.f.r.r.g.I.  ",
"S.f.f.f.g.r.e.Z N N N N N N N N N N N N N N Z N Z j @ @ @ @ @ @ @ i J N N N N N N N N F M L = @ @ @ 7 :.:.<.M N N N M L M L L : @ @ @ @ @ @ @ o k l.f.f.k.k.I.  ",
"S.f.j.r.f.r.e.N M N N N N N N N N N N N N N N Z S j @ @ @ @ @ @ @ s N N N N N N N N M F N M = @ % 9 { :.:.;.%.U M N N N N N Z : @ @ @ @ @ @ @ o k g.r.f.r.g.I.  ",
"S.f.r.r.f.f.e.N M N N N N N N N N N N N N N N N S l @ @ @ @ % @ @ i V N N N N N N N N N F C - @ $ >.:.:.:.:.-.o.N N N N N N Z : @ @ @ @ @ @ @ + k f.f.f.r.g.T.  ",
"S.f.f.r.g.r.e.N F N N N N N N N N N Z N N N Z N N l @ @ @ @ @ @ @ i N N N N N N N N N N F M - @ $ e :.-.:.:.:.o.C V N N N N M : @ @ = @ @ @ @ + k l.r.f.r.g.L.  ",
"S.f.f.r.r.r.e.V M N N N N N N N N N M N N N N N S l = @ @ @ @ @ @ s J N N N N N N N M L g a @ * p [ $.-.-.;.} K N M N N N N L : @ @ @ @ @ $ @ + k l.g.r.r.l.T.  ",
"S.g.f.r.f.f.q.N F N N N N N N N N N N N N M N N S l @ @ @ @ @ @ @ 4 Z N N N N N N N M F a @ @ a V C [ ;.;.,.N M N N F M M N L : = @ @ @ @ @ @ + k p.f.f.r.z.L.  ",
"E.z.f.f.f.f.e.M M N N N N N N N N N N N N N Z N N l @ @ = @ @ @ @ i F N N N N N N N M @ s M M N N N V V J J N N N N N M N N C : + @ @ @ @ = = + k l.f.f.r.x.I.  ",
"].K.p.g.f.f.t...I N N N N N M N N N N N N N N N S l = @ @ @ @ @ @ i Z N N N N N N N M u x N m m N N M N M N N N N N M F M M L : = + @ @ @ @ % k D l.r.f.r.Y.    ",
"    i.z.r.f.f.l.6.M N N N N Z N N N N N N N N N S l @ @ @ @ @ @ @ i Z N N N N N N N N N M N F N N N N N N F M N N N F M F F L : = @ @ @ @ @ % r.l.r.f.f.h.      ",
"    p.z.f.f.f.f.6.M N N N N N N N N N N N N N N Z l @ @ @ @ = @ + + * M N N N N N N N N N N N N N N N N N N N N N N N N N h & @ @ = @ @ @ @ % w.l.f.f.f.l.      ",
"    i.g.f.r.r.f.X.N N N Z N N N m N m F N N N N N l = @ @ @ @ $ 6 6 6 L N N N N N N N N M N N N N N N N N N N N N N N Z N j @ @ @ @ @ @ @ @ $ 0.f.f.r.f.h.      ",
"    i.k.f.f.f.f.T M Z N N N N N N N M N N N N N Z l @ @ @ @ @ 3 =.-.1.J N N N N N N N N N N N N N N M N N N N N N N Z N N j @ @ @ @ @ = @ + $ 0.r.f.f.f.h.      ",
"    f.z.f.r.f.f.e.8.L N B } ,.%.K M F N N N N N N C l : @ + 9 $.-.:.:.*.o.N N N N N N N N N N N m #.+.N N N N N N N N Z 2 * @ @ @ @ @ @ o k 6.w.r.f.r.g.z.      ",
"    K.h.g.f.r.f.j.f.V N m >.-.:. .M F N N M N N N N L ; = + q -.:.:.-.-.| h N N N m N N N N N N V $.| N N N N N L z z l % + # @ @ @ @ - W ) l.f.r.f.l.s.L.      ",
"        v.f.f.f.r.t.V M m >.:.:. .M N N N F N N N N Z : + + w -.-.-.:.:.[ + z L N N V N N N N n N M F M N N F N P = @ @ @ @ @ @ @ @ + c qX#Xr.f.f.f.z.I.        ",
"        v.f.r.r.r.r.7.T N ` ] ] J F N N N N N N N N Z h a @ 4 9 -.:.;.B s @ : u u u i N N N N N N m M N d u 2 u : @ @ + @ @ @ @ @ + M..XoX/.f.f.p.f.z.I.        ",
"        /.f.f.f.f.f.l.6.N Z M N C N N N N N N N N N N N v @ + X #.&.,.2 + @ @ @ + + % M M M C C M M M M : @ @ @ @ @ ; c = @ @ @ - c -X7Xr.k.l.f.r.r.c.Q.        ",
"          i.z.r.r.r.l.6.n N M N N N N N N N N N N N N F l O @ @ $ % % @ @ @ @ @ @ @ % @ % % % @ % @ % - @ % @ @ @ o N.qX< . . . W qXqX6Xl.l.f.r.g.h.            ",
"          p.z.r.r.r.r.q...S N N M N N N N N N N N N M N M d & @ @ @ @ @ @ @ @ @ @ @ = @ @ @ @ @ @ @ @ @ @ @ @ @ @ O Q C.V.C.C.Z.V.N.1X7Xl.r.f.f.g.f.            ",
"          a.c.r.f.r.r.r.g.I N N N N N N N N N N N N N N N L f @ O @ @ % @ @ @ @ @ @ @ = @ @ @ @ @ @ @ @ @ @ @ @ O & ; > 4XqXqXqX-X. |.6Xl.f.f.f.f.s.            ",
"              c.f.f.l.r.f.f.7.N N N N N N N N N N N N N M N M l @ @ @ @ % @ @ @ @ @ @ % @ @ @ @ @ @ @ @ @ = @ @ c 4X8X8XQ < < < M.8XoXc.f.p.f.z.Q.              ",
"              v.r.f.f.f.f.f.7.M N N N N N N N N N N N N N N N M s ; @ @ @ @ = @ @ @ @ @ @ @ @ @ = @ @ @ @ @ @ @ > [.|.[.> o @ o c ,X).t.f.f.g.z.Q.              ",
"              Y.l.f.r.r.f.f.0.N F M F N N N N N N N N N N N Z N L d @ @ @ @ @ @ @ @ @ @ @ = @ @ @ @ @ @ @ @ @ @ @ o + + @ @ @ O 3 k.k.f.r.f.f.v.Q.              ",
"                d.x.r.r.f.r.t.e.I M M N N N N N N N N N N N N N N M h @ @ @ @ @ @ @ @ % @ @ @ @ @ @ @ @ @ @ @ @ @ @ @ = @ @ O P 8.f.k.r.f.g.f.                  ",
"                  Y.j.f.f.r.f.g.6.I F N N N N N N N N N N N N N N N N u : @ @ @ @ = @ @ @ @ % @ @ = @ @ @ = @ @ % @ @ @ @ & d 7.l.r.r.r.h.L.P.                  ",
"                    Y.z.g.f.f.r.f.q.N N N N N N N N N N N N N N N N N N j @ @ @ @ @ @ @ = @ @ @ @ @ @ @ @ = @ @ @ @ @ @ o j l.f.f.r.r.l.b.{.                    ",
"                      d.z.f.r.f.f.f.q.7.7.Z N N N N N N N N N N N N N N M g h a # @ @ + + + @ @ @ @ @ @ @ @ O @ + o p ( ^ 6.r.r.r.f.k.j.                        ",
"                        /.j.k.r.r.r.f.l.f.U Z N N N N N N N N M N N N N N N N z * & * 2 3 i @ @ @ @ @ @ @ = E R R R _ l.l.l.r.r.f.f.h.I.                        ",
"                          L.z.k.f.r.p.r.r.l...n M N N N N N N N N N N N N N N N N Z H ;.:.<.: @ @ = @ @ o W 0XqXqXqX$Xt.k.r.r.r.g.(.                            ",
"                            L.z.r.f.f.r.f.f.q.6.7.T N N N N N N N N N N N N N N N N H -.-.=.h : + + @ @ M.-XqX,X+X$X).r.r.r.f.z.h.                              ",
"                              /.f.r.f.f.r.f.f.f.l.q.S S Z N N N N N N N N N N N N N J >.1.1.6.b < < 1 1 1XqX0X'.r.t.r.r.f.r.j.c.L.                              ",
"                                K.z.h.g.f.f.f.f.f.r.r.q.8.N N N M N N N N N N N N N N V  XqX0X9X9X9X9X9XqX6XY.l.f.f.r.r.f.k.(.                                  ",
"                                  Y.g.r.r.f.r.f.f.f.f.f.q.......6.I N N N N N N N M N N J. X&X>X;XqXqXqX,XoXf.r.r.f.r.r.z.h.T.                                  ",
"                                    h.h.h.g.f.f.r.f.f.r.f.f.f.f.l.6.N N N Z N Z Z V N Z N V t.r.f.7XqX0X).t.r.r.r.f.f.h.(.I.                                    ",
"                                          l.z.z.f.f.f.f.f.f.r.f.f.q.q.q.q.q.q.q.q.q.q.q.q.q.r.r.f.0X2X).g.r.f.z.z.x.I.                                          ",
"                                          L.Y.a.f.r.r.r.f.f.f.f.f.f.f.f.g.f.f.f.f.l.f.f.f.l.r.T.oX,XOXr.r.r.l.s.h.Y.                                            ",
"                                                a.v.v.f.r.f.r.f.f.r.f.f.f.r.f.f.f.f.f.f.f.f.f.&XqXc.r.r.h.v.(.                                                  ",
"                                                      p.z.z.z.z.z.g.f.f.f.r.f.f.r.f.r.f.g.Y.6X>X).z.z.z.W.                                                      ",
"                                                      K.h.s.h.i.s.p.f.f.f.f.f.f.f.f.f.f.g.Y.qX&Xp.s.h.L.                                                        ",
"                                                                  a.b.l.z.z.v.l.z.l.l.z.z.h.                                                                    ",
"                                                                    {.D.D.D.D.D.D.D.D.D.E.                                                                      "
};
