/* XPM */
static char *pickle_rick_pixel_art1675351440[] = {
/* columns rows colors chars-per-pixel */
"45 75 204 2 ",
"   c None",
".  c #010100",
"X  c #060C05",
"o  c #081107",
"O  c #0A1509",
"+  c #0D1B0B",
"@  c #101F0C",
"#  c #141616",
"$  c #1D1D1E",
"%  c #1B151C",
"&  c #0D1716",
"*  c #11220E",
"=  c #142710",
"-  c #162C11",
";  c #182F13",
":  c #1A3315",
">  c #1C3916",
",  c #1E3D18",
"<  c #212E1F",
"1  c #2C2D2D",
"2  c #252725",
"3  c #253123",
"4  c #373937",
"5  c #302F30",
"6  c #482328",
"7  c #54272D",
"8  c #692B33",
"9  c #60212A",
"0  c #1E4019",
"q  c #21431A",
"w  c #264C1E",
"e  c #274E20",
"r  c #2A5422",
"t  c #2E5B24",
"y  c #32542C",
"u  c #3B4A38",
"i  c #306126",
"p  c #34652B",
"a  c #356A2B",
"s  c #396C2E",
"d  c #39732D",
"f  c #3E7B31",
"g  c #3C7431",
"h  c #396530",
"j  c #407E33",
"k  c #46773C",
"l  c #416539",
"z  c #403F41",
"x  c #5A595B",
"c  c #4A4748",
"v  c #7B414A",
"b  c #55764F",
"n  c #585F60",
"m  c #437D77",
"M  c #427D68",
"N  c #656365",
"B  c #6D6A6E",
"V  c #777D76",
"C  c #6B736A",
"Z  c #8A303C",
"A  c #B53445",
"S  c #A33443",
"D  c #D63A4E",
"F  c #844B54",
"G  c #D04256",
"H  c #CD5667",
"J  c #C9696E",
"K  c #3F8031",
"L  c #428435",
"P  c #458B36",
"I  c #468D38",
"U  c #488C3A",
"Y  c #458438",
"T  c #459135",
"R  c #489537",
"E  c #479438",
"W  c #4A943B",
"Q  c #4C9A3D",
"!  c #4FA23F",
"~  c #51A23E",
"^  c #458D47",
"/  c #578F4B",
"(  c #598D4E",
")  c #4C9142",
"_  c #4F9E40",
"`  c #519244",
"'  c #519B42",
"]  c #569349",
"[  c #59924E",
"{  c #599D49",
"}  c #468953",
"|  c #5C8E52",
" . c #5E9155",
".. c #4E9A5A",
"X. c #648B5C",
"o. c #608858",
"O. c #609056",
"+. c #4FA140",
"@. c #52A341",
"#. c #55AB45",
"$. c #5CA74D",
"%. c #59B446",
"&. c #5AB549",
"*. c #5DBB4B",
"=. c #5EBB5E",
"-. c #52A754",
";. c #66AB59",
":. c #64B455",
">. c #6BBD5B",
",. c #47866D",
"<. c #48877A",
"1. c #4C946E",
"2. c #698C62",
"3. c #6C8567",
"4. c #71866D",
"5. c #728C6D",
"6. c #739B6B",
"7. c #73926D",
"8. c #758373",
"9. c #788276",
"0. c #7A8B76",
"q. c #7B8379",
"w. c #798B75",
"e. c #799C72",
"r. c #789473",
"t. c #6B9063",
"y. c #56A867",
"u. c #5AB164",
"i. c #5CB565",
"p. c #6EA962",
"a. c #74A46B",
"s. c #7AAF6F",
"d. c #72B166",
"f. c #7BA573",
"g. c #7EB573",
"h. c #6FB960",
"j. c #5EC24C",
"k. c #61C44F",
"l. c #62C84F",
"z. c #65D54E",
"x. c #64C652",
"c. c #65CC52",
"v. c #69CC56",
"b. c #6AC35A",
"n. c #67C657",
"m. c #66D152",
"M. c #69D254",
"N. c #6EDB59",
"B. c #6BD857",
"V. c #79CD69",
"C. c #7DD86C",
"Z. c #7AD668",
"A. c #818A7F",
"S. c #81BB76",
"D. c #8BDB7B",
"F. c #80D96F",
"G. c #457E8F",
"H. c #427986",
"J. c #467F91",
"K. c #827F83",
"L. c #4A898A",
"P. c #529A85",
"I. c #488398",
"U. c #498696",
"Y. c #509590",
"T. c #7B8881",
"R. c #5499AB",
"E. c #569CB3",
"W. c #4A87A1",
"Q. c #5AA5BB",
"!. c #5DAAC1",
"~. c #63B5CB",
"^. c #64B6CC",
"/. c #66BBD1",
"(. c #68BFD5",
"). c #6AC1D7",
"_. c #878487",
"`. c #8F8B90",
"'. c #89A783",
"]. c #96A991",
"[. c #A4A3A4",
"{. c #ACA6AD",
"}. c #BABCB9",
"|. c #DBADAC",
" X c #94DB85",
".X c #A2C89A",
"XX c #AACDA4",
"oX c #B4D5AE",
"OX c #BED8B7",
"+X c #B4C9B0",
"@X c #CECDCE",
"#X c #C3C3C3",
"$X c #D1CED1",
"%X c #D5D4D6",
"&X c #DCDBDC",
"*X c #D8D3DA",
"=X c #C6D5C3",
"-X c #D2E9CE",
";X c #DDE4DC",
":X c #D0EECA",
">X c #E8E7E8",
",X c #EAF6E8",
"<X c #F5F5F5",
"1X c #FEFEFE",
/* pixels */
"                                                                                          ",
"                                                      o = - : - : = O                     ",
"                                                  o * e Q @.Q W Q I q + O                 ",
"                                                X r #.M.M.x.W W W W R U r X X             ",
"                                              . r %.M.m.M.x.W W ) W W W W L p X           ",
"                                            . r #.v.M.M.x.@.W W W W W W W W I i X         ",
"                                          . r Y l.N.k.#.~ R W W R W E W W W R I i O       ",
"                                        o r I W @.#.@.W W W _ &.*.*.@.W W W W W U O       ",
"                                        O I W W W T R R ~ %.*.m.M.M.x.&.@.W W W W e +     ",
"                                      O , R W W ^ } } } ..i.M.m.M.M.M.M.c.#.Q W W W -     ",
"                                      * Y W W ^ L.I.U.I.U.L.=.=.i.v.M.M.M.c.#.E W Q -     ",
"                                      = Q W W m Q././././.~.U.G.U.u.n.v.M.M.x.Q W W >     ",
"                                      - Q ) Q m Q./.^.^.~.~.~.~.~.U.H.y.m.M.c.+.W W L : . ",
"                                    - f Q E E +.<.J.G.J.U.U././.).~.!.R.m <.Q Q W W Q , . ",
"                                  . > Q R E K K ^ ^ -.>.:.i.U.U.U.!.).~.!.R.M E W W _ , . ",
"                                  . > Q R ) oXOXOXOX Xz.M.c.u.u.-.Y.W.Q.)./.R.,.) R _ , . ",
"                                  . > R ' XX1X1X1X1XOX;.m.M.M.M.z.y.y.Y.R.Q.~.H.) W Q , . ",
"                                  @ r $..X1X1X1X1X1X*X].>.M.M.m.c.z.z.=.1.<.E.H.) W Q q . ",
"                                . q P g.1X1X1X#X>X1X1X$Xw.m.M.m.D.D.D.F.n.n.<.,.) R Q , . ",
"                                . w R s.1X1X<Xc #X1X1X$X7.M.M.C.,X1X1X$Xe.n.l.W W W Q , . ",
"                                X e R s.<X1X1X<X1X1X1X$Xr.M.Z.,X1X1X1X1X%X5.' W W R L > . ",
"                              . q L R | [.1X1X1X1X1X1X$X7.C.,X1X1X1X1X1X1X*X8.W W ) >     ",
"                              . i Q T W O.[.1X1X1X1X@X'.n.C.1X1X1XN [.1X1X&Xq.W W Q -     ",
"                              . i R | 2.R O.[.{.{.{.'.n.z.F.1X1X1X}.%X1X1X>Xq.W W Q -     ",
"                              > f R ] 2.X.R O.p.p.p.a.d.m.V.+X<X1X1X1X1X1X>XV W W W =     ",
"                            . p R / / ` 2.o. .d.v.b.a.d.m.v.e.1X1X1X1X1X<X}.X.W W t @     ",
"                            . d ] 2.X.P k B [.0.b.e.a.M.>.M.B.:X:X;X&X&X}.o.T W W +       ",
"                            o d 4.2.T h % 1 @XS.x.e.6.d.e.M.b.m.z.6.9.V X.W W W W +       ",
"                          . a T 4.X.h $ $ $ 1 @Xg.7._.6.l.n.0.b.v.$.` ` U W W W W +       ",
"                          . f Q 4.t.p $ $ 2 $ 5 q.%XXXQ #.@.{ 0._.q.q.q.3.R W W j +       ",
"                          . j R 3.X.a $ $ 2 $ $ 5 z C +X,X=Xu &X,XN h [ ` ` 8.I *         ",
"                        o r I R 4.t.p % # $ $ $ $ & 1 x N x 2 x N 5 3 s R [ q.U X         ",
"                        X L W W | 2.b b `.# # $ 8 Z 6 & # % = % # $ $ y Q / 9.I o         ",
"                        X I W W R |  .;.+X_._.2 9 A S 8 7 $ 2 $ $ 2 % y R [ q.Y X         ",
"                        - I @.Q W R T T $.-X-XV n v A D A 6 % $ $ $ 3 s ' | C t X         ",
"                      O L ~ b.' W W Q _ +.! @.-X,XT.v H G H c 2 3 3 g ` o.5.K .           ",
"                      + Q b.0./ T U #.M.c.M.M.#.+.oX<X|.J ,X;X4 j W R X.3.R L .           ",
"                      + ) q.] W W _ *.v.M.M.M.c.M.*.$.$.$.$.{ U W W R ) ) Q j X           ",
"                    * d W ` W W T %.c.M.M.M.M.M.M.c.j.c.j.Q T W W W W W R W s .           ",
"                    = W W W W W W &.M.M.c.M.m.M.M.M.M.x.#.) W W W W W W W f *             ",
"                  = i W W W W W U &.M.M.M.M.c.M.M.M.x.#.W W W W W W W W Q d .             ",
"                . > W W W W W W W &.M.M.M.M.M.M.M.B.&.W W W W W W W W W W a .             ",
"                * r _ W W | ) W U &.M.M.M.M.M.M.M.c.#.W W W W W W W W W L q .             ",
"              . q I W R ` 4.' W W &.M.M.M.M.M.c.c.#.W W W W W W W W W Q t .               ",
"              X t Q W W W W W W T &.B.c.c.M.M.M.#.) R W W W W W W W W Y w .               ",
"            . e Y W W W W W W W _ *.M.M.M.M.M.M.@.W W W W W W W W W Q e .                 ",
"            . i _ W W W W W W W &.c.M.M.M.M.c.#.W W W W W W W W W W W q .                 ",
"          . w L W W W W W W W W *.v.M.M.M.M.M.+.W W W W W W W R W Q e +                   ",
"          . s R W W W W W W W W *.M.M.M.c.&.#.Q W W W R ` t.&.Q W W > .                   ",
"          > L W @.@.W W W W W W *.M.M.M.x.Q W W W W W W [ _.M.Q W r *                     ",
"        . g W @.:.:.Q W W W W #.l.M.M.v.*.W W W W W W R ] a.*.W R =                       ",
"        * L W j.f.3.R W W W W x.M.M.M.x.Q R W W W W W W @.*.W W a +                       ",
"      X f R W *.a.2.R W W W @.c.M.M.M.*.W W W W W W W W W W W W +                         ",
"      O I W W W W ) W W W W x.M.c.M.*.Q W W W W W W W W W W R g O                         ",
"    + s W W W W W W W W R _ x.M.&.! W W W W W W W W W W W W Y +                           ",
"    + W W W W W W W W W @.l.m.M.n.#.W W W W W W W W W W W W f X                           ",
"    @ W W W W W W W W Q k.M.M.M.k.@.W W W W W W W W W W W L ;                             ",
"    + W W W W W W W +.*.M.M.*.&.@.W W W W W W W W W W W W g .                             ",
"  + w W W W W W W @.*.M.*.&.@.W W W W W W W W W W W W Q L q .                             ",
"  = U W W W W W W @.x.*._ W W W W W W W W W W W W W W W a .                               ",
"  ; Q R W W W W W W W W W W W W W W W W W W W ` W W Q Y e .                               ",
"  : Q W W W W W W W W W W W W W W W W W W W W 8.| R Q i .                                 ",
"  ; Q W W W W W W W W W W W W W W W W W W W W q.>.#.Y e .                                 ",
"  ; Q W W *.7.| R W W W W W W W W W W W W W R >.$.R e O                                   ",
"  ; R T W c.;.` R W W W W W W W W W W W W W W @.Q w +                                     ",
"  > j.%._ #.Q W W W W W W W W W W W W W R R W I w +                                       ",
"  0 n.d.&.#._ W W W W W W W W W W W W ` O.$.T r O                                         ",
"  - b a.M.M.*.+.W W W W W W W W W W R [ e.&.t X                                           ",
"    - c.M.M.M.*._ W W W W W W W W W R @.*.t .                                             ",
"    @ _ n.m.M.M.*.+.W W W W W W W W Q Y i .                                               ",
"      + _ c.M.M.M.c.k.Q W W R W W W Y t X                                                 ",
"        @ _ M.M.M.M.c.l.x.x.#.Q I e + O                                                   ",
"          = , , f x.N.N.N.M.q - = O                                                       ",
"                - e t t t r O                                                             ",
"                . . . . . .                                                               "
};
