/* XPM */
static char *rick_face_cutout1675330948[] = {
/* columns rows colors chars-per-pixel */
"50 62 207 2 ",
"   c None",
".  c #010102",
"X  c #090404",
"o  c #04040B",
"O  c #09060C",
"+  c #07080C",
"@  c #0A0A0E",
"#  c #0E0904",
"$  c #110C0B",
"%  c #050612",
"&  c #0B0B12",
"*  c #0D0C1B",
"=  c #120F17",
"-  c #0E111C",
";  c #131213",
":  c #13131C",
">  c #1A1417",
",  c #13110E",
"<  c #231A15",
"1  c #251F0F",
"2  c #392A1C",
"3  c #29241F",
"4  c #1B1925",
"5  c #1B1A2B",
"6  c #161524",
"7  c #1A1B32",
"8  c #221F2C",
"9  c #201F34",
"0  c #1C2C29",
"q  c #1E2034",
"w  c #24252B",
"e  c #292D2D",
"r  c #322B28",
"t  c #242332",
"y  c #2E2E39",
"u  c #272836",
"i  c #353436",
"p  c #33343C",
"a  c #3B393B",
"s  c #2E3038",
"d  c #423619",
"f  c #49372A",
"g  c #5B4A38",
"h  c #353746",
"j  c #2D3144",
"k  c #3E404C",
"l  c #3F4566",
"z  c #3F4468",
"x  c #49474B",
"c  c #554944",
"v  c #5B534C",
"b  c #434352",
"n  c #484858",
"m  c #685C58",
"M  c #7B684C",
"N  c #7A6A56",
"B  c #796B5A",
"V  c #776A58",
"C  c #484A68",
"Z  c #54546A",
"A  c #5A5B67",
"S  c #5B5C73",
"D  c #565473",
"F  c #605E69",
"G  c #5F6076",
"H  c #6A6667",
"J  c #676777",
"K  c #736A61",
"L  c #825F37",
"P  c #876E37",
"I  c #816E4F",
"U  c #81745D",
"Y  c #8C7D66",
"T  c #917E67",
"R  c #B18953",
"E  c #95846F",
"W  c #A68D69",
"Q  c #DEAE6E",
"!  c #DFB06D",
"~  c #C1A87C",
"^  c #C9A97E",
"/  c #DEAF74",
"(  c #D3AC7E",
")  c #DDB174",
"_  c #DAB178",
"`  c #E1AE6C",
"'  c #E1B06D",
"]  c #E3B779",
"[  c #F7D95A",
"{  c #F0D16D",
"}  c #5A5D81",
"|  c #575A81",
" . c #5E6082",
".. c #666788",
"X. c #6F7191",
"o. c #807DA4",
"O. c #7D8199",
"+. c #74B399",
"@. c #71B99B",
"#. c #6FB79A",
"$. c #8E8D8D",
"%. c #8A8482",
"&. c #8A8C94",
"*. c #919193",
"=. c #958F8B",
"-. c #BBA98D",
";. c #BEA995",
":. c #8E8FB3",
">. c #8F91B8",
",. c #9292BA",
"<. c #9999BB",
"1. c #8D8EAD",
"2. c #99BBBA",
"3. c #BAABA8",
"4. c #A7A8BA",
"5. c #B3B1B0",
"6. c #B4B0AF",
"7. c #C3AB87",
"8. c #D3AE84",
"9. c #D2AF8B",
"0. c #CCB38A",
"q. c #C7AC99",
"w. c #C8B395",
"e. c #D8BE98",
"r. c #E4BC82",
"t. c #E9BF82",
"y. c #C2AEA6",
"u. c #C1B6A8",
"i. c #C0BCBA",
"p. c #9AC1AC",
"a. c #97D6BB",
"s. c #94C2B8",
"d. c #AFD4A8",
"f. c #E7C286",
"g. c #F3CE9D",
"h. c #F2C992",
"j. c #F3D29F",
"k. c #EACB9C",
"l. c #EED3AC",
"z. c #F5D7A6",
"x. c #F5D9A6",
"c. c #F5D7A9",
"v. c #F6D9A8",
"b. c #FADCAB",
"n. c #F8D8A6",
"m. c #FCDEB1",
"M. c #F4DBB5",
"N. c #E5CCAF",
"B. c #FFE1AF",
"V. c #FDE1B2",
"C. c #989BC8",
"Z. c #959CD1",
"A. c #9BA5DA",
"S. c #B3ADCA",
"D. c #BCBCCE",
"F. c #A4A6D6",
"G. c #BCBBD4",
"H. c #AAABD5",
"J. c #94A4E6",
"K. c #99A4E2",
"L. c #92A5EB",
"P. c #98A7E9",
"I. c #9BAAEC",
"U. c #8FA4E5",
"Y. c #A1AEED",
"T. c #A2ABE3",
"R. c #A3B1EF",
"E. c #ACB1EA",
"W. c #BABCEB",
"Q. c #B7B8E7",
"!. c #ABB5F2",
"~. c #A7B6F3",
"^. c #B2BBF7",
"/. c #B7BEF8",
"(. c #C0BFEF",
"). c #A4DFC5",
"_. c #BEC1D7",
"`. c #A4E1C6",
"'. c #A5E2CB",
"]. c #BFC2ED",
"[. c #BBC3FC",
"{. c #B8C1F7",
"}. c #C7C7C9",
"|. c #C7C6C8",
" X c #C6C4D9",
".X c #D6CFDC",
"XX c #D9CEDB",
"oX c #D5D0DC",
"OX c #E5D1C8",
"+X c #C8E5DB",
"@X c #D4E0DB",
"#X c #D5CCE3",
"$X c #C2C7FE",
"%X c #C5C9FF",
"&X c #CACEFF",
"*X c #C6C5F3",
"=X c #CDD1FF",
"-X c #D3D6FF",
";X c #D9DAF2",
":X c #DAD0E2",
">X c #D9EDE6",
",X c #CEF2E4",
"<X c #EFEFF2",
"1X c #F4F4F7",
"2X c #FEFEFE",
"3X c #F4F4F8",
"4X c #FBF6EB",
/* pixels */
"                                                              b b                                   ",
"                        = o . . . . o                         O . . . o o 6                         ",
"                        @ X : q 9 9 u                         u 9 w 9 = . %                         ",
"                        @ . S *X(.(.W.h @ & , :     4 & & & h W.W.W.*XS . &                         ",
"                        @ .  .&X$X%X*Xy . o . ;     : . o . j $X$X$X&XJ . &                         ",
"                        @ .  .&X$X$X*XC.:.>.,.o.5 5 o.>.>.:.C.$X%X$X&XJ . &                         ",
"                        @ .  .&X$X$X$X&X&X%X=XF.. o F.-X&X&X%X$X$X$X&XS . *                         ",
"                        ; .  .&X$X$X$X$X$X$X&XH.Z Z E.%X$X$X$X$X$X$X&XJ . &                         ",
"          & o o . o . o . . } &X[.%X%X%X%X%X[.&X&X&X*X$X%X$X$X$X$X$X&XG . . o . X o o o 4           ",
"          & X * 5 5 4 q 7 6 X.%X%X[.[.[.[.[.%X[.$X$X$X$X$X[./.$X[.$X&XX.: 5 5 5 5 4 @ . 4           ",
"          & . D ].Q.Q.Q.Q.Q.{.%X{.I.P.P.P.!.%X%X$X$X$X$X!.P.P.P.P.{.%XW.Q.W.Q.Q.Q.].Z . 4           ",
"          & . } =X%X%X%X%X&X&X[.[.L.L.L.L.!.[.[.$X$X$X$X!.L.L.L.J.[.&X%X&X$X$X%X%X=XS . 4           ",
"          @ . } =X[.%X[.!.R.R.R.Y.L.L.L.L.I.R.R.R.R.R.R.I.L.L.P.L.Y.Y.Y.Y.!.$X$X%X=XS . 4           ",
"          & . | =X[.%X[.Y.L.L.L.L.L.L.L.L.L.L.L.L.L.L.L.L.L.L.L.L.L.L.L.J.I.$X$X$X&XS . &           ",
"          & . | =X[.{.^.I.L.L.L.L.L.L.L.L.L.L.L.L.L.L.L.L.L.P.L.I.L.L.L.L.I.^.^.$X&XS . @           ",
"          @ . S =X[.L.U.L.L.L.L.L.L.L.L.L.L.L.L.L.L.L.L.L.L.L.L.L.L.L.L.L.L.J.K.{.&XS . &           ",
"          & . | &X/.P.L.L.L.A.A.A.A.A.A.A.A.A.A.A.A.A.A.A.A.F.A.F.A.F.K.L.L.L.K./.&XS . &           ",
"          @ . | =X/.P.L.L.J.3.( 9.8.8.8.8.8.8.8.8.( 8.8.( 8.9.8.8.8.9.H.L.L.L.K./.&XS . @           ",
"          o o | -X[.L.L.L.J.3.` ` ` ! ' ` ` ` ` ' ` ` ` ` ` ` ` ` ` ` S.L.J.L.J./.&XS . ;           ",
"      4 * X.O.Z.~.Y.L.L.3.q.8.` Q ! ! ! ) ` Q Q ' ! ' ) Q Q Q ` ` ` ` q.y.S.J.L.Y.Y.C.1.X.: *       ",
"      . . C.=X^.L.L.L.Z.( ' ! Q ! Q ` Q Q Q Q Q Q Q Q Q ` Q Q Q Q / ` Q ! q.K.L.J.J.^.-X<.. o       ",
"      n l A.{.R.L.L.L.K.( ` ! Q ) r.r.r.r.] r.r.] r.r.r.r.r.r.r.r.' Q ` ! 3.J.J.L.J.R./.C.b n       ",
"n o j [.=XY.U.L.L.L.L.K.( Q Q / _ z.v.v.v.v.v.v.v.v.v.v.v.v.v.v.z.] Q ' ! y.L.L.L.L.J.J.R.&X*Xt o   ",
"h . 9 E.].I.L.L.L.L.L.K.( ' ) ) r.z.c.z.v.z.z.z.z.c.z.z.z.c.c.v.z.r.) ) ! y.L.L.L.L.L.L.T.*XG.8 o   ",
"n X + 5 7 Z.[.~.L.L.L.K.( Q f.j.z.z.z.z.z.z.z.z.z.z.z.z.z.x.z.x.z.z.j.{ / y.L.L.L.L.!.&XC.5 5 + o b ",
"a o o o o C.-X{.P.I.I.T.( Q f.z.z.v.v.c.v.v.v.v.v.v.z.b.v.v.x.x.n.c.n.f.Q y.I.I.I.P./.-XC.. o o . n ",
"          Z S C z z l n ^ h.OX.X.X.X.X.XoX.X.X.XXX.X.X.XoXoXoXXXXXXXXXN.t.;.z z z l C Z Z           ",
"          . . . . . . . ~ m..X[.$X%X&X&X&X%X[.$X%X[.%X[.%X%X&X&X&X$X%XOXm.q.. . . . . . o           ",
"            & & & : + O ~ m.OX#X X,.,.,.,.S.:X.X X X#X#XS.,.,.,.,. X:XN.b.-.X o 4 : @ %             ",
"                    & X ~ b.c.b.w.+ o o . M V.j.` ) l.V.B . o . # 0.b.c.b.-.o @                     ",
"                    & X ~ b.c.b.w.& . o . I B.g.` / j.V.B . o . # 0.b.n.b.-.o o                     ",
"                    & X ~ b.c.b.w.@ . o . I B.g.Q ) j.V.B . + . # 0.b.n.b.-.o +                     ",
"                    & X ~ V.x.v.w.. . . . M b.g.] / g.V.N . . . X 0.n.z.V.-.o o                     ",
"                    & X ~ b.c.v.k.E T T Y 7.n.g./ / j.n.7.Y T T T k.c.z.b.-.o o                     ",
"                    * X 7.V.b.c.n.b.m.m.B.b.z.g.) _ j.c.b.V.V.V.m.b.z.n.B.7.o %                     ",
"                    - ; W -.e.v.c.z.z.z.z.z.v.z.r._ j.c.z.c.z.n.c.c.n.e.-.=.= *                     ",
"                        > . M V.c.z.z.c.z.z.z.v.x.z.z.z.z.z.z.c.c.c.m.B . =                         ",
"                        & X N M.z.n.n.z.c.v.z.z.z.x.x.z.c.x.n.c.c.l.M.K . 5                         ",
"                            x 2 g j.z.z.z.z.z.z.z.z.z.z.z.c.z.v.l.g r a                             ",
"                              . 3 m.V.V.V.V.b.V.B.V.V.V.V.V.V.V.M.r .                               ",
"                            Z J H B B V V N N N N N N B V N N N B J J Z                             ",
"                        o . H ;X4.. . . . . . . . . . . . . . . . 4.;XS . -                         ",
"                        x a J <.&.y y y s e 0 0 0 0 0 0 e y s s p &.4.H a b                         ",
"                    - & }.2X$.. u D._._._.2.#.+.+.+.+.+.2._._._._.u X $.2X|.o %                     ",
"                    * o }.2X$.. w D. X X Xs.@.+.@.@.@.#.2. X X XG.u . $.2X|.X %                     ",
"                    & o }.2X$.. i <X3X3X1X+Xa.a.a.a.a.a.+X3X1X1X<Xp . $.2X|.o o                     ",
"                    & o |.2X$.. i 2X2X2X2X,X`.`.`.`.`.`.>X2X2X2X2Xi . $.2X|.o +                     ",
"                    @ o }.2X$.. a 3X2X2X2X,X).`.`.`.`.a.>X2X2X2X2Xi . $.2X|.X +                     ",
"                    o o }.2X$.. i 3X2X2X2X,X`.'.'.`.'.'.>X2X2X2X1Xi . $.2X}.@ @                     ",
"                    o X i.4X%.. i 2X2X2X2X+X2.d.d.d.d.p.@X2X2X2X2Xi . E 4X5.O +                     ",
"                    O X R f.M . i 2X2X2X2X6.v P [ { B v 5.2X2X2X1Xi . M { W X o                     ",
"                    & # R ] M . i 2X2X2X2X3.g P [ [ U v 5.2X2X2X2Xi . L ] W @ &                     ",
"                        f r < . a 3X2X2X2X=., 1 d d < ; *.2X2X2X3Xi . < r i                         ",
"                        + . . . i 2X2X2X2X$.. . . . . . $.2X2X2X2Xi . X X %                         ",
"                                x *.*.*.*.x . : F A 6 . x *.*.*.*.x w t u                           ",
"                                  . . . . . . e  X Xs . . . . . X                                   ",
"                                  % X , ; @ . w D.D.w . + ; , . %                                   ",
"                                  % X x m r . +     @ . e m x . o                                   ",
"                                  o . g m i . o     + . r H x o %                                   ",
"                                  o o h n w . +     + . w x a o o                                   ",
"                                  o o j b 0 . o     o . 5 b h o %                                   ",
"                                  : :       : :       :       : 6                                   "
};
