/* XPM */
static char *rick_left_side_cutout1675330948[] = {
/* columns rows colors chars-per-pixel */
"50 67 213 2 ",
"   c None",
".  c #020103",
"X  c #0A0303",
"o  c #04040A",
"O  c #09060A",
"+  c #07080C",
"@  c #09090D",
"#  c #090807",
"$  c #150E0C",
"%  c #18120D",
"&  c #050611",
"*  c #080716",
"=  c #0C0C13",
"-  c #0D0E1B",
";  c #070816",
":  c #120E15",
">  c #151415",
",  c #15161B",
"<  c #171818",
"1  c #0B1018",
"2  c #241C16",
"3  c #17261E",
"4  c #33261C",
"5  c #161925",
"6  c #1C1C2B",
"7  c #191925",
"8  c #1D1E33",
"9  c #211F2A",
"0  c #1E212B",
"q  c #23232D",
"w  c #2A2728",
"e  c #322B25",
"r  c #342D29",
"t  c #242334",
"y  c #2A2B3A",
"u  c #2F3237",
"i  c #37353B",
"p  c #3E332F",
"a  c #46392B",
"s  c #453D38",
"d  c #544533",
"f  c #494336",
"g  c #61513E",
"h  c #383944",
"j  c #3A3B54",
"k  c #2F3341",
"l  c #3E424C",
"z  c #3B405A",
"x  c #454549",
"c  c #564C45",
"v  c #43425B",
"b  c #414552",
"n  c #5D5755",
"m  c #56514F",
"M  c #61554D",
"N  c #69594A",
"B  c #655A53",
"V  c #655A53",
"C  c #75654B",
"Z  c #776B54",
"A  c #676358",
"S  c #4B4C6A",
"D  c #595969",
"F  c #474F73",
"G  c #495175",
"H  c #565778",
"J  c #625E65",
"K  c #7E7E7F",
"L  c #66646C",
"P  c #8A7357",
"I  c #A47E52",
"U  c #A77F4F",
"Y  c #817663",
"T  c #807E7F",
"R  c #788E7D",
"E  c #7E947C",
"W  c #B09436",
"Q  c #AB8656",
"!  c #9C8B6D",
"~  c #9B8D76",
"^  c #9E9079",
"/  c #A18D6F",
"(  c #A08E71",
")  c #B79160",
"_  c #ABB577",
"`  c #C7965E",
"'  c #DEAE6E",
"]  c #DFAF72",
"[  c #D8AC77",
"{  c #DEB479",
"}  c #DFB274",
"|  c #C4A377",
" . c #E0AE6D",
".. c #E0AE66",
"X. c #E2B16D",
"o. c #E1B273",
"O. c #E1B67B",
"+. c #E8B978",
"@. c #E0AF72",
"#. c #F1D356",
"$. c #FFE145",
"%. c #686986",
"&. c #676B94",
"*. c #6E718D",
"=. c #6D7AB0",
"-. c #7CA695",
";. c #79A08D",
":. c #7D86B4",
">. c #898686",
",. c #938985",
"<. c #AB9D97",
"1. c #86A490",
"2. c #8686AB",
"3. c #8C8EB4",
"4. c #878AB6",
"5. c #9596BB",
"6. c #8E92B0",
"7. c #A09CB7",
"8. c #97ABA2",
"9. c #A2A1A2",
"0. c #ABA9AB",
"q. c #AAA8A7",
"w. c #AEA7B8",
"e. c #B8ACB5",
"r. c #BFBFBE",
"t. c #AAB3AB",
"y. c #CBAC93",
"u. c #C7AC9C",
"i. c #CFB092",
"p. c #CEB79F",
"a. c #DAB68E",
"s. c #E8BD82",
"d. c #C0BFBF",
"f. c #C6ADA5",
"g. c #9BD8B9",
"h. c #EAC288",
"j. c #EECA93",
"k. c #ECCA95",
"l. c #F4D39E",
"z. c #D6E084",
"x. c #DFD0BA",
"c. c #E8CEA5",
"v. c #EDD2AC",
"b. c #EDD4A7",
"n. c #F5D7A6",
"m. c #F5D8A6",
"M. c #F4D7A9",
"N. c #F6D9A9",
"B. c #FCDEAD",
"V. c #F9D8A5",
"C. c #EDD6B4",
"Z. c #F2D6B0",
"A. c #F3DAB4",
"S. c #F6DDB4",
"D. c #FDE0AE",
"F. c #FEE2B1",
"G. c #D0DB8D",
"H. c #999CC5",
"J. c #8A9CDC",
"K. c #8F93C0",
"L. c #9FA1C4",
"P. c #9DA1CE",
"I. c #9CA5DC",
"U. c #9BA3D8",
"Y. c #8EA0DF",
"T. c #ADA8C1",
"R. c #A6A4C6",
"E. c #B3ADC6",
"W. c #B7B4C9",
"Q. c #A3A6D5",
"!. c #B3B2D8",
"~. c #909FE6",
"^. c #8FA4EC",
"/. c #8FA1E4",
"(. c #93A4E6",
"). c #93A5EA",
"_. c #9AABED",
"`. c #98A8E4",
"'. c #98AAF2",
"]. c #96ABF2",
"[. c #A0ABE6",
"{. c #A7B2E9",
"}. c #BBBDED",
"|. c #B3B7E7",
" X c #ABB5F2",
".X c #ABB6F4",
"XX c #B5BDF6",
"oX c #BCBEF2",
"OX c #B4BFFA",
"+X c #C0BEC0",
"@X c #C2BCEC",
"#X c #A5DEC2",
"$X c #A5E1C4",
"%X c #A9E5CA",
"&X c #A7E4C9",
"*X c #BBC2FB",
"=X c #B9C2F7",
"-X c #C8C2C9",
";X c #D7CEDC",
":X c #D8CFD0",
">X c #C8E7D8",
",X c #CDC8ED",
"<X c #C3C2ED",
"1X c #C3C5F5",
"2X c #C2C6FD",
"3X c #C4C9FE",
"4X c #C9CDFF",
"5X c #CEC9F1",
"6X c #CED3FF",
"7X c #D1D4FF",
"8X c #E2E2E3",
"9X c #FFFFFF",
"0X c gray95",
/* pixels */
"                                                                                                    ",
"                                                                                                    ",
"                          @ o o o o                             o o o o -                           ",
"                          = o # : :                             - : O o -                           ",
"                          = . 6 P.!.%.o @ = -         = @ = o &.!.w.7 . *                           ",
"                          = . 8 oX7X%.. . . . o     o . . . . &.4X<X9 . -                           ",
"                          = . 8 oX4X2.j v v v v     v v v v j 4.4X}.9 . -                           ",
"                          : . 8 }.1X4X4X4X2X7X6.. o 3.7X3X5X3X3X3X}.6 . =                           ",
"                          = . 6 XX2X2X2X2X2X4X3.. o 4.4X2X2X3X2X3X}.6 . @                           ",
"            = = @ : = $ & *.3.K.1X2X2X2X2X3X3X|.4.4.|.3X2X2X2X3X2X1X5.3.*.# = : @ @ = :             ",
"            O o o . . X . 4.6X4X2X3X3X3X2X3X2X3X4X4X2X2X2X2X3X3X3X3X3X6X2.. . . . . o o             ",
"            o & 6 t t t 8 3.4X*X*X*X*X*X@X3X2X2X3X*X2X2X2X*X@XOX*X*X2X4X3.8 t t t 6 # +             ",
"            O ; H.1XoX@X=X1X3X*X_._.).)._.=X3X3X3X3X3X2XOX[.)._.(.`.*X3X1XoX@XoX1X5.O o             ",
"            o ; Q.4X3X4X4X3X4X*X).).).)._.=X3X3X*X3X3X3XOX_.).).(._.*X3X3X3X3X3X4XR.o #             ",
"            O - P.3XOX X X X.X X).).).).(. X X X X X X X X).).).).(. X.XXX2X2X1X4XL.+ o             ",
"            o * P.3XXX).).).~.).).).).).)././.)./.).).).).~.).).).).(./.{.3X2X2X4XL.# o             ",
"            # * P.4XOX).).).).)._.).).).).).).).).).).).).).).).).).).).{.3X2X3X3XL.O o             ",
"            o * P.4XOX^.).).).).).).).).).).).).).).).).).).).).).).).).)._.`.XX4XR.O O             ",
"            . * P.4XOX).).^.^.^.^.).^.^.^.^.).).^.^.^.^.'.).).).).).).).).).(.XX4XL.O o             ",
"            # * P.4XOX).(.R.T.T.T.T.T.T.T.T.T.T.T.T.T.T.Q.~.).).).).).).).)._.XX4XL.O O             ",
"            . * P.4XOX).U.y.X.] ] ] ] ] o.] ] ] ] ] ] ] f.`.).).).).).).).).).oX4XL.# o             ",
"            + - P.4XOX).U.y. . . .'  .' ]  .@. . . .'  .u.`.(.).).).).).).).).XX4XP.+ .             ",
"      : o H H.H.`.{.T.y.u.[  .X. .' ] ' X.]  .' ] ' ]  .a.y.u.Q.).).).).).).(._.{.[.3.5.D o -       ",
"      . . H 6X4X_.^.w.' ' ' '  .' ' ' ' ' ' ' ' ' ' '  . ...o.T.^.'.).).).).).).)._.4X6XD . &       ",
"      y t &.*X=X'.).w.O.O.O.O.O.O.O.O.O.O.O.{ O.O.O.X.' ' ] ] e.Q.I.~.).).).).).(._.*X*X%.q u       ",
"5 o 8 !.2X X`.(.).^.W.l.n.n.n.l.n.n.l.n.n.n.n.n.n.n.O.' X.] ' [ [ u.I.'.).).).).).).).(.|.1X!.< o 5 ",
", . 6 XX6X.X/.(.(.^.W.l.N.M.n.n.m.n.n.n.n.M.n.n.N.m.s.' ' ' ] ' @.i.Q.^.).).).).).).(.(.=X7X@X7 o 5 ",
", . - H %.4..X X_.^.W.m.n.n.n.n.n.m.m.m.N.m.m.m.M.m.k.h.h.] ' '  .i.Q.^.).).).).^._. X X4.L D - o 7 ",
", o # . . H 6X3X'.^.W.m.n.m.m.m.m.m.m.m.m.m.m.m.m.n.n.N.V.] X.' X.i.I.^.).).).).).'.4X6XD . . o o 5 ",
"5 + + + . H =X=X`.J.T.M.M.Z.Z.Z.Z.Z.Z.M.Z.M.A.C.C.A.n.V.l.O.] X.X.i.I.^._.).).Y.J.I.}.1XD . O o o 5 ",
"            t 0 7 5 S ,X,X,X,X,X,X,X,X,X,X,X,X,X5X,XC.n.n.l.l.s. .i.I.^.).).`.j 5 7 9 q             ",
"            . . . . j 3X4X3X2X2X2X2X3X4X4X4X4X4X*X3XC.n.n.n.N.h...i.I.).^.^.(.y . . . .             ",
"            1 : O o t 2.2.+X+X-X;X;XT.2.2.2.2.5.;X;XZ.N.m.n.N.j.h.a.W.W.W.W.!.i . O = :             ",
"                & o o o X I s.O.n.F.Y . . . . d S.m.n.n.n.n.n.N.N.N.N.N.S.N.S.f . =                 ",
"                @ O o o X U X.o.n.B.Y . o # . d B.n.m.n.n.n.n.n.N.m.m.m.m.m.S.s . =                 ",
"                @ o O O $ U o.{ b.F.Y . . o . d N.n.M.n.n.n.N.M.m.N.n.M.n.m.C.6.=.&.= ;             ",
"                = o o . X U o.O.m.F.Z # o . . d B.n.n.n.n.n.n.n.m.m.N.N.m.V.A.|.'.:.@ +             ",
"                = o $ 4 4 Q o.+.n.N.~ e r e 4 C m.m.n.M.n.n.n.n.m.m.l.l.C.x.:X[.^.:.O +             ",
"                @ . a b.c.s.' O.M.m.b.v.Z.v.M.M.m.n.m.n.n.n.n.m.M.m.+.X.e.`.I.(.].:.o +             ",
"                = . f F.B.s.' { n.m.m.m.M.n.n.N.n.M.n.M.N.N.M.n.n.n.{ X.e.].]._.'.4.O +             ",
"                      Z C | j.j.n.m.m.n.n.n.n.N.n.m.n.n.n.n.M.n.n.n.k.j.<.F F F G S                 ",
"                      . . ( F.V.n.m.m.n.n.n.n.n.n.n.M.n.n.N.n.n.m.n.m.D.^ . . . . o                 ",
"                      = . ( v.c.m.m.m.n.m.M.n.M.n.n.n.n.n.n.n.m.m.v.c.v.~ . & + + 1                 ",
"                          e 2 a k.m.m.m.n.n.n.n.n.n.m.m.n.M.n.M.N.c.a 2 r                           ",
"                          = . 4 b.F.D.D.B.B.F.B.D.B.D.B.D.D.B.B.F.C.% . o                           ",
"                          = . % ! ( / / ( ( ! ( / ! ( ( ( / / / ^ ^ L J J                           ",
"                          = o . . . . . . . . . . . . . . . . . . $ 8X9X0.o +                       ",
"                          = o o . . . . . o . . . # . # . . o . . > 8X9X0.. &                       ",
"                          = X < ;.-.-.-.-.-.-.8.W.r.r.r.r.r.-XJ . > 8X9Xq.. &                       ",
"                          - o 3 g.&X&X&X%X%X&X>X9X9X9X9X9X9X9XR . > 8X9Xq.. o                       ",
"                          = . 3 g.$X$X$X&X$X$X>X9X9X9X9X9X9X9XT . > 8X9Xq.. o                       ",
"                          = . 3 g.$X$X$X$X$X#X>X9X9X9X9X9X9X9XK . > 8X9Xq.. &                       ",
"                          = . 3 g.&X$X$X#X#X&X>X9X9X9X9X9X9X9XK . > 8X9X0.. +                       ",
"                          = o < R ~ _ z.G.1.;.t.9X9X9X9X9X9X9XK . % p.A.~ . &                       ",
"                          = o @ c g W $.#.Z c ,.9X9X9X9X9X9X9XK . $ ` +.P . +                       ",
"                          @ o $ M M W #.#.C c ,.9X9X9X9X9X9X9X>.% 4 ) [ P o *                       ",
"                          = o $ M V C C C 2 O n 9X9X9X9X9X9X9X0X8X8Xp % e                           ",
"                          1 o $ M B M V n > . m 9X9X9X9X9X9X9X9X9X9Xq . -                           ",
"                            1 7 i s c B M > . i 9.9.9.9.9.9.9.9.9.9.u &                             ",
"                                o . e B n > . o . . . . . . . . . .                                 ",
"                                o o e B M % o O o @ o o o . X X o =                                 ",
"                                O . e B M > o <     > . > f x 4 . ;                                 ",
"                                = . r V M , . ,     < . > n A r . -                                 ",
"                                - o w n m : o ,     < . > m n w . =                                 ",
"                                = . 0 l l @ o >     : o = h x 0 . =                                 ",
"                                = o 0 l l : . ,     , . = l x 0 . =                                 ",
"                                i h       k k         h u     h h k                                 "
};
