/* XPM */
static char *rick_right_side_cutout1675330949[] = {
/* columns rows colors chars-per-pixel */
"50 69 219 2 ",
"   c None",
".  c #020103",
"X  c #090504",
"o  c #05040B",
"O  c #08060B",
"+  c #0C0A0B",
"@  c #0A0A08",
"#  c #120B0B",
"$  c #130A06",
"%  c #1A130F",
"&  c #060712",
"*  c #0C0C13",
"=  c #06061A",
"-  c #0C0D1A",
";  c #080717",
":  c #120E12",
">  c #131213",
",  c #15141B",
"<  c #191818",
"1  c #0E101F",
"2  c #231A15",
"3  c #20190D",
"4  c #19221F",
"5  c #0E1126",
"6  c #1A1B25",
"7  c #1B1C2B",
"8  c #161626",
"9  c #1D1D33",
"0  c #050820",
"q  c #201E2B",
"w  c #1D2230",
"e  c #242429",
"r  c #332C2D",
"t  c #272639",
"y  c #383436",
"u  c #382C34",
"i  c #4A3C2F",
"p  c #4B4238",
"a  c #52473D",
"s  c #69593C",
"d  c #776438",
"f  c #282B46",
"g  c #333342",
"h  c #393B46",
"j  c #403443",
"k  c #3D424D",
"l  c #3F6253",
"z  c #3E4977",
"x  c #494646",
"c  c #594B48",
"v  c #59514F",
"b  c #5C5554",
"n  c #595859",
"m  c #484B54",
"M  c #665747",
"N  c #645954",
"B  c #655A56",
"V  c #406254",
"C  c #48635C",
"Z  c #4D4D67",
"A  c #514E6B",
"S  c #57566A",
"D  c #565679",
"F  c #4F516C",
"G  c #696A77",
"H  c #7D7C7F",
"J  c gray38",
"K  c #866C2B",
"L  c #8C7455",
"P  c #87785B",
"I  c #977752",
"U  c #877463",
"Y  c #738376",
"T  c #9E8F75",
"R  c #938E67",
"E  c #A68D68",
"W  c #A4926F",
"Q  c #C09D66",
"!  c #DEAE6E",
"~  c #DEAE71",
"^  c #D7AD7A",
"/  c #DCB074",
"(  c #DDB37A",
")  c #CDA26B",
"_  c #E1AE6D",
"`  c #E6B66F",
"'  c #E0AF71",
"]  c #E0B47A",
"[  c #E4B477",
"{  c #EDCC56",
"}  c #FFE24E",
"|  c #DFE17F",
" . c #D7D97C",
".. c #5C6590",
"X. c #696986",
"o. c #7F7E80",
"O. c #646996",
"+. c #737392",
"@. c #575F89",
"#. c #73B99C",
"$. c #71B79B",
"%. c #7AAA97",
"&. c #79BCA1",
"*. c #76BBA0",
"=. c #7A89C6",
"-. c #8A8486",
";. c #8D8C90",
":. c #949495",
">. c #969599",
",. c #998D84",
"<. c #BFAC9B",
"1. c #B2A886",
"2. c #8487AB",
"3. c #8C8DB2",
"4. c #8A8DBB",
"5. c #9698BD",
"6. c #8F91B5",
"7. c #86BFAD",
"8. c #A9A9A9",
"9. c #ACA9B9",
"0. c #BAADB4",
"q. c #D2AE88",
"w. c #D9B684",
"e. c #C8AB94",
"r. c #CBB594",
"t. c #C8B29B",
"y. c #D0B28B",
"u. c #E3BB83",
"i. c #E9BE87",
"p. c #C2ACA2",
"a. c #99D8BD",
"s. c #93C7B4",
"d. c #A4CFBD",
"f. c #A6D9BD",
"g. c #DAC59F",
"h. c #E6C18C",
"j. c #F4CF9D",
"k. c #F4D19D",
"l. c #EBCB98",
"z. c #DAC4A3",
"x. c #ECD4AA",
"c. c #F5D7A6",
"v. c #F5D8A5",
"b. c #F5D7A9",
"n. c #F5D8A9",
"m. c #FADCAB",
"M. c #F9D6A5",
"N. c #EDD7B8",
"B. c #F2D9B2",
"V. c #F3D9B6",
"C. c #E6CDA3",
"Z. c #FEE1AC",
"A. c #FCE4B6",
"S. c #9A9BC5",
"D. c #9B9CC9",
"F. c #878DC4",
"G. c #A09DC5",
"H. c #9EA0CA",
"J. c #9FA1C6",
"K. c #9EA1D1",
"L. c #9EA8D9",
"P. c #A6A3C6",
"I. c #ADA6C2",
"U. c #A8A7CD",
"Y. c #A7ABD7",
"T. c #ABB2DA",
"R. c #B7B6D5",
"E. c #B3B0CE",
"W. c #8DA5EB",
"Q. c #8FA1E4",
"!. c #93A4E6",
"~. c #9AA5E5",
"^. c #93A5EB",
"/. c #99A6E9",
"(. c #9CABEC",
"). c #97A9E9",
"_. c #92A4F0",
"`. c #9BACF3",
"'. c #8FA2F4",
"]. c #A0ABE7",
"[. c #AAB3EA",
"{. c #BABCEB",
"}. c #B9BBE8",
"|. c #A6B3F1",
" X c #AAB5F2",
".X c #B6BDF7",
"XX c #B5BEF9",
"oX c #BABEF5",
"OX c #C2BEEB",
"+X c #9CDBC0",
"@X c #A4DFC4",
"#X c #AADFC3",
"$X c #A4E1C5",
"%X c #A8E2C7",
"&X c #BAE9D6",
"*X c #BBC2FB",
"=X c #B9C2F9",
"-X c #BDC1ED",
";X c #C4C6DA",
":X c #DCDCDD",
">X c #E9D5C5",
",X c #E2D8DA",
"<X c #CECAE5",
"1X c #C6C7E0",
"2X c #D1CAE6",
"3X c #D1CDEA",
"4X c #C3C3F4",
"5X c #C3C7FE",
"6X c #C5C9FE",
"7X c #C9CDFF",
"8X c #CCCCF7",
"9X c #CED2FF",
"0X c #D2D4FF",
"qX c #D2CEF1",
"wX c #E3E2E4",
"eX c #F6F7F9",
"rX c #FFFFFF",
"tX c #F2F2F4",
"yX c #C2EAD9",
/* pixels */
"                            6 6 6 6                             6 6 6 7                             ",
"                          * o . . .                             . . . o ;                           ",
"                          : . O 8 6                             6 , O o -                           ",
"                          * . 7 Y.OXX.. + & * ,     , & * & . +.{.E.7 . *                           ",
"                          * . 9 oX0XX.. . . . o     o . . . . O.0XOX7 . -                           ",
"                          * . t {.7X3.Z Z F F m     A A Z Z Z 4.7X{.q . *                           ",
"                          * . 7 {.6X5X7X9X7X9X6.. o 4.0X7X6X7X6X5X{.e . *                           ",
"                          ; o 9 {.5X5X5X5X5X7X3.o o 4.6X5X5X6X5X6X}.7 . -                           ",
"            * * * * : : & +.S.S.5X5X5X5X5X5X7X}.6.5.}.5X5X5X5X5X5X=XS.5.+.O * * * + + ;             ",
"            O X . . . X . 2.9X5X6X5X5X5X5X5X4X5X7X7X6X5X5X6X5X5X6X5X9X0X2.. . . . . o O             ",
"            O o e t t t t 4.6X5X*X*X=X=X=X5X5X5X5X5X5X5X5X*X*X*X*X*X*X7X6.t t f t e o o             ",
"            o ; D.4X4X4X=X5X5X*X/.^.^.)./.=X5X5X5X5X5X5X*X/./.!.~.~.*X5X4X4XOXOX8X5.@ .             ",
"            o ; U.7X5X5X5X5X6X5X).^.^.^.).=X5X5X5X5X5X6X*X^.^.^.).).=X6X6X6X6X5X6XP.@ o             ",
"            . ; K.6X5X5X5X.X X|.^.^.^.^.^. X X X X X X X|.^.^.^.^.!. X X X X X*X7XH.o o             ",
"            o ; K.6X5X5X5X|.^.^.^.!.^.^.^.!.!.!.!.!.^.!.^.^.W.).^.^.!.!.^.!.!.oX7XD.& o             ",
"            X ; K.7X5X5X5X`.^.^.^.W.).^.^.^.^.^.^.^.^.^.^.^.^.^.^.).^.^.^.^.!.oX7XH.O o             ",
"            o ; K.7XXX/.(.^.^.^.^.^.^.^.^.^.^.^.^.^.^.^.^.^.^.^.^.).^.^.^.^.^..X7XP.@ o             ",
"            o ; K.7XXX^.^.^.^.^.^.^.^.^.^._.^._.^._._._._._._.^._._._._.^.^.^..X7XS.O o             ",
"            . ; H.7X=X^.^.^.^.).^.^.^._.!.I.I.I.I.I.I.I.I.I.I.I.I.I.I.I.L.^.^.=X7XS.o o             ",
"            o ; K.7X.X!.^.^.^.!.^.^.^._.Y.^ / / / / / / / / / / / / / ^ 0.W.!..X7XP.@ o             ",
"            o = K.7X.X^.^.^.^.^.!.!._.~.G.~ _ ! ! _ _ _ _ _ _ _ ! _ _ _ 0.^.L.oX7XH.o o             ",
"        O S 2.=.].|.`.^.^.^.^.^._.~.I.p.t.^ _ ! ! ! ! _ _ ~ _ ! ! ! ! _ y.<.0.T.|.L.2.3.S @         ",
"      o . D 0X8X`.^.^.^.^.^.^.^.!.!.<.' ' ~ ~ ~ ! ! ! ! ! ! _ ! ! ! _ ! ! ! ^ L.W.(.7X0XS . O       ",
"      w 6 O.5X=X/.^.^.^.^.^.^.!.G.U.e.~ ' ' ~ ~ [ ( [ ] ] ( ( / ] ] ] ] / / g.L.W.(.*X6XX.6 9       ",
"7 o 7 T.-X|.).).W.).^.^.^.^._.U.q.q.^ _ ! ~ ~ u.M.M.c.c.v.v.x.c.c.M.c.c.c.k.B.T.W.^.).!.[.1XE.6 O 7 ",
"6 . 7 oX9X=XQ.Q.W.^.!.^.^.^._.P._ _ _ ' ! ! ~ w.n.n.c.c.n.n.c.c.b.c.n.b.c.c.N.T.Q.!.!.Q..X0XOX6 o 7 ",
"7 . - X.+.F. X|.).^.).W._./._.I.! ' ' _ ' i.i.l.c.c.c.c.v.v.v.v.c.c.v.b.n.n.N.T.!.). X X4.+.X.: o 6 ",
"8 . o . . D 9X6X(.!.^.^.^./.^.G.! _ ' ' ~ j.m.b.v.v.v.c.v.v.v.v.c.c.c.v.v.n.N.T.W.(.7X9XS . . X o 7 ",
"7 o & O . D 7X=X(.L.!.^.^.^.^.U.~ ~ ~ / ( j.b.V.B.B.B.n.B.B.B.B.B.B.V.V.B.n.>XT.Q.~.5X8XS . O O o 7 ",
"            g g f 9 z ^.^.^._.U.! ! u.j.j.b.b.>X<X<X<X<X<X3X<X<X<X<X2X2X2X2X2XF t t t g             ",
"            . . . . f ^._._.'.G.~ ~ i.b.b.M.M.,X*X5X6X7X7X*X7X*XoX5XOX5X5X5X0Xj . . . .             ",
"            * * o . g T.T.E.T.0.] u.l.b.b.b.M.>X2X3XU.S.J.S.J.R.3X<X2XOXR.D.G.u . O * *             ",
"                @ . p V.n.B.x.B.M.n.c.n.c.n.c.n.b.B.a . @ o . P A.x.w.w.U o O O . *                 ",
"                o . i k.c.c.c.M.c.c.c.c.c.c.c.b.c.A.a . . o . L m.M.] ` L . X X o *                 ",
"            * 5 @...-.M.v.v.b.b.n.c.c.c.c.n.b.c.c.B.a . o . . L Z.M.[ ` L . X X . *                 ",
"            o = =.`.E.M.c.v.b.b.c.c.n.c.c.c.v.c.b.m.x . o . . L m.M.] [ L . X . o ;                 ",
"            o 0 =._.E.N.N.b.j.M.n.c.c.c.c.c.c.c.n.B.M % 2 3 % I m.k.( [ I % 2 @ . -                 ",
"            o = =._.).L.U.q.] u.c.c.c.b.n.c.n.c.b.b.C.z.z.z.g.C.m.M.( ! w.z.z.y . ;                 ",
"            * 0 =.`.`._.].e.~ ( M.n.c.n.c.c.c.n.M.b.b.b.n.M.M.n.M.c.( ! h.A.A.p . *                 ",
"            5 5 ..O.O.O.O.1.i.h.M.c.c.c.n.c.c.n.n.b.b.b.n.n.n.c.c.c.h.u.y.T T x &                   ",
"                & . . o . E m.m.c.M.c.c.v.b.v.v.n.n.v.c.v.x.n.n.c.b.n.Z.W . .                       ",
"                - O o o . T A.B.v.c.v.c.b.c.c.b.v.v.c.b.n.n.M.c.M.b.V.A.,.. ;                       ",
"                          a p s l.n.n.v.n.v.b.c.v.v.v.v.c.v.c.n.b.x.M i x                           ",
"                          & . 3 C.Z.m.Z.m.m.m.m.m.m.n.Z.m.m.m.m.m.x.2 . &                           ",
"                          * o 2 e.r.r.r.r.r.r.r.r.r.r.r.r.y.r.g.t.t.e &                             ",
"                          - o O $ $ $ # @ + @ $ # + @ # @ @ @ @ $ #                                 ",
"                          o . . . . . o . . . . . . . . . . @ . . .                                 ",
"                          H ;.-.G G y . o S G G G G C l l l l l l C                                 ",
"                      O . 9.rXrX;X:XG . + 9.<X1X1X&X7.#.&.&.&.*.&.%., o -                           ",
"                      o . 8.rXeXR.;XG : , 9.;X;X-X;X7.$.#.#.#.#.#.%., o 5                           ",
"                      & . 8.rXwXy 6 H :X:XtXeXeXeXeX&Xs.+Xa.+X+X+Xa.4 o *                           ",
"                      + . 8.rXwX> . o.rXrXrXrXrXrXrX&X$X$X$X$X$X$Xd.4 . >                           ",
"                      O . 8.rX,X< . H rXrXrXrXrXrXrX&Xf.$X$X$X$X$Xd.4 . *                           ",
"                      O . 8.rXwX> . H rXrXrXrXrXrXrX&X+X$X$X%X%X$Xd.4 . *                           ",
"                      O . 8.rXwX, . H rXrXrXrXrXrXrXyX#X#X#Xf.%X%Xd.4 . *                           ",
"                      O . R x.t.% . o.rXrXrXrXrXrXrX8.Y R  .| W Y Y > . -                           ",
"                      O . I ` Q $ . Y rXrXrXrXrXrXrX,.c K { } E N v : . -                           ",
"                      ; X I ) E r e ;.rXrXrXrXrXrXeXT a d { { E b b : . *                           ",
"                          2 $ i wXtXeXrXrXrXrXrXrXrXb . 3 d d M M v # o -                           ",
"                          = o e eXrXrXrXrXrXrXrXrXrXn . > b M N B N : O ,                           ",
"                              g >.:.:.:.:.:.:.:.:.:.r . % B B x u y 6                               ",
"                                . . . . . . . . . . . . % b B r X O                                 ",
"                                & o @ @ . . . @ * - X . % B B r X O                                 ",
"                                + . e x x : . ,     > X , B B r . O                                 ",
"                                * . r J n > . ,     + . > b B r . &                                 ",
"                                * . e n m > . <     > o > m n r . &                                 ",
"                                * o w k k * o ,     < o * h k 4 . &                                 ",
"                                & . 7 m k * . ,     , . & h m e o ;                                 ",
"                                g h       y h         h h       h g                                 "
};
